/* XPM */
static char * number_1_xpm[] = {
"12 26 3 1",
" 	c #00FF00",
".	c #FEFEFE",
"+	c #FFFFFF",
"        .+++",
"      .+++++",
"     .++++++",
"   .++++++++",
" .++++++++++",
" +++++++++++",
" ++++..+++++",
" +++. .+++++",
" ..   .+++++",
"      .+++++",
"      .+++++",
"      .+++++",
"      .+++++",
"      .+++++",
"      .+++++",
"      .+++++",
"      .+++++",
"      .+++++",
"      .+++++",
"      .+++++",
"      .+++++",
"      .+++++",
"      .+++++",
"      .+++++",
"      .+++++",
"      .+++++"};
