/* XPM */
static char * number_5_xpm[] = {
"17 26 3 1",
" 	c #00FF00",
".	c #FFFFFF",
"+	c #FEFEFE",
"  .............  ",
"  .............  ",
"  .............  ",
"  .............  ",
"  ....+........  ",
" +...+           ",
" +....           ",
" +...+           ",
" +...+           ",
" +...+           ",
" +...+.++++      ",
" +..........+    ",
" +............+  ",
" ..............  ",
" +     ........+ ",
"          +..... ",
"          +..... ",
"           ..... ",
"           ..... ",
"          .....+ ",
"          +....+ ",
"..++    +......  ",
"..............+  ",
".............+   ",
" ..........+     ",
"  ++++++++       "};
