/* XPM */
static char * close_sem_xpm[] = {
"54 53 91 1",
" 	c None",
".	c #010929",
"+	c #0B0A2B",
"@	c #111034",
"#	c #171A44",
"$	c #18233C",
"%	c #1C2146",
"&	c #242445",
"*	c #24284E",
"=	c #1F2D5C",
"-	c #262E59",
";	c #2B2E55",
">	c #2E2E50",
",	c #29305C",
"'	c #2D3057",
")	c #2E3158",
"!	c #2E3259",
"~	c #2C335F",
"{	c #2F335A",
"]	c #31355C",
"^	c #33365E",
"/	c #303764",
"(	c #313865",
"_	c #2E396A",
":	c #323966",
"<	c #333A66",
"[	c #353C68",
"}	c #363D69",
"|	c #393F6C",
"1	c #39424D",
"2	c #364173",
"3	c #314474",
"4	c #384274",
"5	c #35447B",
"6	c #344677",
"7	c #364879",
"8	c #344B82",
"9	c #3E4C6D",
"0	c #364D84",
"a	c #384F86",
"b	c #48505C",
"c	c #3A5188",
"d	c #3C528A",
"e	c #43517E",
"f	c #3E548C",
"g	c #3A5592",
"h	c #3C5794",
"i	c #3D5895",
"j	c #3F5A97",
"k	c #415C99",
"l	c #455E90",
"m	c #435E9B",
"n	c #4161A3",
"o	c #4262A5",
"p	c #4363A6",
"q	c #5B6471",
"r	c #4666A9",
"s	c #55668E",
"t	c #4968AB",
"u	c #4A69AC",
"v	c #5C6D95",
"w	c #566EA1",
"x	c #6F7D83",
"y	c #4E8B95",
"z	c #6C84AC",
"A	c #53918E",
"B	c #7F8D93",
"C	c #619AAA",
"D	c #8EA4BB",
"E	c #9DABB1",
"F	c #A9B8BE",
"G	c #77CECD",
"H	c #ADBECB",
"I	c #74D6D4",
"J	c #B9C6C6",
"K	c #83DAD9",
"L	c #BFCDD4",
"M	c #8EDCDD",
"N	c #BCCEDA",
"O	c #94DED9",
"P	c #A1E2DE",
"Q	c #CDDCE3",
"R	c #AEE6E4",
"S	c #B9E9E9",
"T	c #C5ECED",
"U	c #C8EDE8",
"V	c #D8EDEB",
"W	c #D3F0ED",
"X	c #DFF4F3",
"Y	c #E2F7F6",
"Z	c #FFFFFF",
"       IIIIIIIIIIIIIIIIIIIIIIIIIIIIIIIIIIIIIIII       ",
"      KKCCCCCCCCCCCCCCCCCCCCCCCCCCCCCCCCCCCCCGKK      ",
"     KKy======================================CKK     ",
"    KKy=-;;;;;;;;;;;;;;;;;;;;;;;;;;;;;;;;;;;;-=CKK    ",
"   MMy=-))))))))))))))))))))))))))))))))))))))-=CMK   ",
"  MMy=-{{{{{{{{{{{{{{{{{{{{{{{{{{{{{{{{{{{{{{{{-=CMM  ",
"  OC=,^^^^^^^^^^^^^^^^^^^^^^^^^^^^^^^^^^^^^^^^^^-=CO  ",
"  Os,((((((((((((((((((((((((((((((((((((((((((((=AO  ",
"  Pv~<<<<<<<<<<<<<<<<<<<<<<<<<<<<<<<<<<<<<<<<<<<<~AP  ",
"  Pv/}}}}}}}}}}}}}}}}}}}}}}}}}}}}}}}}}}}}}}}}}}}}~AP  ",
"  Pv/22222222222222222222222222222222222222222222~AP  ",
"  Rv_44444444444sDEEDe4444444444eDEEDs44444444444~zR  ",
"  Rv_7777777777xVXXXXNl77777777sQXXXXQv7777777777_zR  ",
"  Rv_777777777zVXXXXXXNl777777sQXXXXXXQv777777777_BR  ",
"  Sx_00000000zVXXXXXXXXNl0000sQXXXXXXXXQv00000000_BS  ",
"  Sx_aaaaaaaaLXXXXXXXXXXNlaasQXXXXXXXXXXHaaaaaaaa_BS  ",
"  Tx_ddddddd7QYYYYYYYYYYYQEFVYYYYYYYYYYYL8ddddddd_BS  ",
"  Tx3fffffff7QYYYYYYYYYYYYYYYYYYYYYYYYYYL0fffffff_BT  ",
"  Ux3hhhhhhh8QYYYYYYYYYYYYYYYYYYYYYYYYYYLahhhhhhh_BU  ",
"  Wx3iiiiiiiaEYYYYYYYYYYYYYYYYYYYYYYYYYYBdiiiiiii3BU  ",
"  Wx6kkkkkkkk,FYYYYYYYYYYYYYYYYYYYYYYYYE~kkkkkkkk3BW  ",
"  Wx6mmmmmmmmk/FYYYYYYYYYYYYYYYYYYYYYYE_kmmmmmmmm3BW  ",
"  Xx6ooooooooon_FYYYYYYYYYYYYYYYYYYYYE_nooooooooo3BV  ",
"  Xx8ppppppppppo3FYYYYYYYYYYYYYYYYYYE3ppppppppppp3BX  ",
"  Xx8rrrrrrrrrrrp9VYYYYYYYYYYYYYYYYQ6rrrrrrrrrrrr3BX  ",
"  Xx8uuuuuuuuuuuumQYYYYYYYYYYYYYYYYLpuuuuuuuuuuuu3BX  ",
"  Wx8rrrrrrrrrrrrzVYYYYYYYYYYYYYYYYVwrrrrrrrrrrrr3BW  ",
"  Wx5pppppppppppzQYYYYYYYYYYYYYYYYYYQwppppppppppp3BW  ",
"  Wx6nnnnnnnnnnzQYYYYYYYYYYYYYYYYYYYYQwnnnnnnnnnn_BW  ",
"  Ux3mmmmmmmmmwQYYYYYYYYYYYYYYYYYYYYYYQwmmmmmmmmm_BU  ",
"  Tx3kkkkkkkkwQYYYYYYYYYYYYYYYYYYYYYYYYQwkkkkkkkk_BT  ",
"  Tx3iiiiiiiiJYYYYYYYYYYYYYYYYYYYYYYYYYYHiiiiiiii_BS  ",
"  Sx_ggggggg0QYYYYYYYYYYYYYYYYYYYYYYYYYYLcggggggg_BS  ",
"  Sx_fffffff7QYYYYYYYYYYYYXXYYYYYYYYYYYYL8fffffff~BS  ",
"  Sx/ddddddd6QYYYYYYYYYYYFqqJYYYYYYYYYYYL8ddddddd,xR  ",
"  Rq~aaaaaaa3FYYYYYYYYYYE3a03FYYYYYYYYYYE7aaaaaaa,xR  ",
"  Rq~888888881LYYYYYYYYE388883FYYYYYYYYJ>88888888-xR  ",
"  Pq,7777777721LYYYYYYE3777777|FYYYYYYJ>377777777-AP  ",
"  Pq-66666666631JXYYVE}66666666}FXYYXH>3666666666-AP  ",
"  Pq-4444444444}*bbbb[4444444444:bbbb*24444444444*AP  ",
"  Pq-22222222222222222222222222222222222222222222*AO  ",
"  Oq*}}}}}}}}}}}}}}}}}}}}}}}}}}}}}}}}}}}}}}}}}}}}&AO  ",
"  Mq*<<<<<<<<<<<<<<<<<<<<<<<<<<<<<<<<<<<<<<<<<<<<%AM  ",
"  Mq@~((((((((((((((((((((((((((((((((((((((((((,@AM  ",
"  KC$@)^^^^^^^^^^^^^^^^^^^^^^^^^^^^^^^^^^^^^^^^;@$GK  ",
"  CKC$@;{{{{{{{{{{{{{{{{{{{{{{{{{{{{{{{{{{{{{{;+$GKA  ",
"  .AKC@+;))))))))))))))))))))))))))))))))))))*+$GKA.  ",
"   .yIC@+&**********************************&+$CIy.   ",
"    .yIC@....................................$CIy.    ",
"     .yIGGGGGGGGGGGGGGGGGGGGGGGGGGGGGGGGGGGGGGIy.     ",
"      .lyyyyyyyyyyyyyyyyyyyyyyyyyyyyyyyyyyyyyye.      ",
"        ......................................        ",
"                                                      "};
