/* XPM */
static char * close_xpm[] = {
"54 54 91 1",
" 	c None",
".	c #010929",
"+	c #0B0A2B",
"@	c #111034",
"#	c #171A44",
"$	c #18233C",
"%	c #1C2146",
"&	c #242445",
"*	c #24284E",
"=	c #1F2D5C",
"-	c #262E59",
";	c #2B2E55",
">	c #2E2E50",
",	c #29305C",
"'	c #2D3057",
")	c #2E3158",
"!	c #2E3259",
"~	c #2C335F",
"{	c #2F335A",
"]	c #31355C",
"^	c #33365E",
"/	c #303764",
"(	c #313865",
"_	c #2E396A",
":	c #323966",
"<	c #333A66",
"[	c #353C68",
"}	c #363D69",
"|	c #393F6C",
"1	c #39424D",
"2	c #364173",
"3	c #314474",
"4	c #384274",
"5	c #35447B",
"6	c #344677",
"7	c #364879",
"8	c #344B82",
"9	c #3E4C6D",
"0	c #364D84",
"a	c #384F86",
"b	c #48505C",
"c	c #3A5188",
"d	c #3C528A",
"e	c #43517E",
"f	c #3E548C",
"g	c #3A5592",
"h	c #3C5794",
"i	c #3D5895",
"j	c #3F5A97",
"k	c #415C99",
"l	c #455E90",
"m	c #435E9B",
"n	c #4161A3",
"o	c #4262A5",
"p	c #4363A6",
"q	c #5B6471",
"r	c #4666A9",
"s	c #55668E",
"t	c #4968AB",
"u	c #4A69AC",
"v	c #5C6D95",
"w	c #566EA1",
"x	c #6F7D83",
"y	c #4E8B95",
"z	c #6C84AC",
"A	c #53918E",
"B	c #7F8D93",
"C	c #619AAA",
"D	c #8EA4BB",
"E	c #9DABB1",
"F	c #A9B8BE",
"G	c #77CECD",
"H	c #ADBECB",
"I	c #74D6D4",
"J	c #B9C6C6",
"K	c #83DAD9",
"L	c #BFCDD4",
"M	c #8EDCDD",
"N	c #BCCEDA",
"O	c #94DED9",
"P	c #A1E2DE",
"Q	c #CDDCE3",
"R	c #AEE6E4",
"S	c #B9E9E9",
"T	c #C5ECED",
"U	c #C8EDE8",
"V	c #D8EDEB",
"W	c #D3F0ED",
"X	c #DFF4F3",
"Y	c #E2F7F6",
"Z	c #FFFFFF",
"     ZZZZZZZZZZZZZZZZZZZZZZZZZZZZZZZZZZZZZZZZZZZZ     ",
"    ZZZTSSSSSSSSSSSSSSSSSSSSSSSSSSSSSSSSSSSSSSUZZZ    ",
"   ZZZRKCCCCCCCCCCCCCCCCCCCCCCCCCCCCCCCCCCCCCGKSZZZ   ",
"  ZZZRKy======================================CKSZZZ  ",
" ZZZRKy=-;;;;;;;;;;;;;;;;;;;;;;;;;;;;;;;;;;;;-=CKSZZZ ",
"ZZZSMy=-))))))))))))))))))))))))))))))))))))))-=CMSZZZ",
"ZZSMy=-{{{{{{{{{{{{{{{{{{{{{{{{{{{{{{{{{{{{{{{{-=CMSZZ",
"ZXOC=,^^^^^^^^^^^^^^^^^^^^^^^^^^^^^^^^^^^^^^^^^^-=CPXZ",
"ZQOs,((((((((((((((((((((((((((((((((((((((((((((=AOVZ",
"ZQPv~<<<<<<<<<<<<<<<<<<<<<<<<<<<<<<<<<<<<<<<<<<<<~APQZ",
"ZQPv/}}}}}}}}}}}}}}}}}}}}}}}}}}}}}}}}}}}}}}}}}}}}~APQZ",
"ZQPv/22222222222222222222222222222222222222222222~APQZ",
"ZQRv_44444444444sDEEDe4444444444eDEEDs44444444444~zRQZ",
"ZQRv_7777777777xVXXXXNl77777777sQXXXXQv7777777777_zRQZ",
"ZQRv_777777777zVXXXXXXNl777777sQXXXXXXQv777777777_BRQZ",
"ZQSx_00000000zVXXXXXXXXNl0000sQXXXXXXXXQv00000000_BSQZ",
"ZQSx_aaaaaaaaLXXXXXXXXXXNlaasQXXXXXXXXXXHaaaaaaaa_BSVZ",
"ZQTx_ddddddd7QYYYYYYYYYYYQEFVYYYYYYYYYYYL8ddddddd_BSVZ",
"ZQTx3fffffff7QYYYYYYYYYYYYYYYYYYYYYYYYYYL0fffffff_BTVZ",
"ZQUx3hhhhhhh8QYYYYYYYYYYYYYYYYYYYYYYYYYYLahhhhhhh_BUVZ",
"ZQWx3iiiiiiiaEYYYYYYYYYYYYYYYYYYYYYYYYYYBdiiiiiii3BUQZ",
"ZQWx6kkkkkkkk,FYYYYYYYYYYYYYYYYYYYYYYYYE~kkkkkkkk3BWQZ",
"ZQWx6mmmmmmmmk/FYYYYYYYYYYYYYYYYYYYYYYE_kmmmmmmmm3BWQZ",
"ZQXx6ooooooooon_FYYYYYYYYYYYYYYYYYYYYE_nooooooooo3BVQZ",
"ZQXx8ppppppppppo3FYYYYYYYYYYYYYYYYYYE3ppppppppppp3BXQZ",
"ZQXx8rrrrrrrrrrrp9VYYYYYYYYYYYYYYYYQ6rrrrrrrrrrrr3BXQZ",
"ZQXx8uuuuuuuuuuuumQYYYYYYYYYYYYYYYYLpuuuuuuuuuuuu3BXQZ",
"ZQWx8rrrrrrrrrrrrzVYYYYYYYYYYYYYYYYVwrrrrrrrrrrrr3BWQZ",
"ZQWx5pppppppppppzQYYYYYYYYYYYYYYYYYYQwppppppppppp3BWQZ",
"ZQWx6nnnnnnnnnnzQYYYYYYYYYYYYYYYYYYYYQwnnnnnnnnnn_BWQZ",
"ZQUx3mmmmmmmmmwQYYYYYYYYYYYYYYYYYYYYYYQwmmmmmmmmm_BUQZ",
"ZQTx3kkkkkkkkwQYYYYYYYYYYYYYYYYYYYYYYYYQwkkkkkkkk_BTQZ",
"ZQTx3iiiiiiiiJYYYYYYYYYYYYYYYYYYYYYYYYYYHiiiiiiii_BSQZ",
"ZQSx_ggggggg0QYYYYYYYYYYYYYYYYYYYYYYYYYYLcggggggg_BSQZ",
"ZQSx_fffffff7QYYYYYYYYYYYYXXYYYYYYYYYYYYL8fffffff~BSQZ",
"ZQSx/ddddddd6QYYYYYYYYYYYFqqJYYYYYYYYYYYL8ddddddd,xRQZ",
"ZQRq~aaaaaaa3FYYYYYYYYYYE3a03FYYYYYYYYYYE7aaaaaaa,xRQZ",
"ZQRq~888888881LYYYYYYYYE388883FYYYYYYYYJ>88888888-xRQZ",
"ZQPq,7777777721LYYYYYYE3777777|FYYYYYYJ>377777777-APQZ",
"ZQPq-66666666631JXYYVE}66666666}FXYYXH>3666666666-APQZ",
"ZQPq-4444444444}*bbbb[4444444444:bbbb*24444444444*APQZ",
"ZQPq-22222222222222222222222222222222222222222222*AOQZ",
"ZQOq*}}}}}}}}}}}}}}}}}}}}}}}}}}}}}}}}}}}}}}}}}}}}&AOQZ",
"ZQMq*<<<<<<<<<<<<<<<<<<<<<<<<<<<<<<<<<<<<<<<<<<<<%AOQZ",
"ZQMq@~((((((((((((((((((((((((((((((((((((((((((,@AOQZ",
"ZQKC$@)^^^^^^^^^^^^^^^^^^^^^^^^^^^^^^^^^^^^^^^^;@$GMQZ",
"ZQDKC$@;{{{{{{{{{{{{{{{{{{{{{{{{{{{{{{{{{{{{{{;+$GKEQZ",
"ZVFDKC@+;))))))))))))))))))))))))))))))))))))*+$GKDJVZ",
"ZZVFDIC@+&**********************************&+$CIDJVZZ",
" ZZVFDIC@....................................$CIDJVZZ ",
"  ZZVFDIGGGGGGGGGGGGGGGGGGGGGGGGGGGGGGGGGGGGGGIDJVZZ  ",
"   ZZVFBCCCCCCCCCCCCCCCCCCCCCCCCCCCCCCCCCCCCCCBJVZZ   ",
"    ZZVJFFFFFFFFFFFFFFFFFFFFFFFFFFFFFFFFFFFFFFJVZZ    ",
"     ZZYYYYYYYYYYYYYYYYYYYYYYYYYYYYYYYYYYYYYYYYZZ     "};
