/* XPM */
static char * cursor_xpm[] = {
"20 30 88 1",
" 	c #00FF00",
".	c #233D71",
"+	c #243E72",
"@	c #284176",
"#	c #24437D",
"$	c #25447E",
"%	c #274681",
"&	c #294883",
"*	c #2A4984",
"=	c #2C4A85",
"-	c #2D4A86",
";	c #2E4B87",
">	c #304D89",
",	c #324F8B",
"'	c #33508C",
")	c #34518D",
"!	c #35528E",
"~	c #37538F",
"{	c #385490",
"]	c #395491",
"^	c #3A5592",
"/	c #3B5693",
"(	c #365899",
"_	c #3C5794",
":	c #38599B",
"<	c #3D5895",
"[	c #395A9C",
"}	c #3E5996",
"|	c #3A5B9E",
"1	c #3B5C9F",
"2	c #4C5987",
"3	c #3D5DA0",
"4	c #3E5EA1",
"5	c #3F5FA2",
"6	c #4060A3",
"7	c #4E5E92",
"8	c #4161A4",
"9	c #4262A5",
"0	c #4363A6",
"a	c #4464A7",
"b	c #3E67A9",
"c	c #4565A8",
"d	c #4666A9",
"e	c #4867AA",
"f	c #416AAC",
"g	c #4968AB",
"h	c #4A69AC",
"i	c #687190",
"j	c #6F768F",
"k	c #6E7FA8",
"l	c #8188A2",
"m	c #858EAE",
"n	c #A6AABF",
"o	c #A7ABC0",
"p	c #AAAEC4",
"q	c #ACAEBE",
"r	c #ADAFBF",
"s	c #AEB0C0",
"t	c #ADB1C7",
"u	c #AFB1C1",
"v	c #B1B2C2",
"w	c #AEB3C8",
"x	c #AFB4C9",
"y	c #B0B5CA",
"z	c #B1B6CB",
"A	c #B0B7D2",
"B	c #B2B7CC",
"C	c #B1B8D3",
"D	c #C8C8D2",
"E	c #C9C9D3",
"F	c #CFCED9",
"G	c #D0CFDA",
"H	c #D1D0DB",
"I	c #D3D3DD",
"J	c #DBDFE2",
"K	c #E5E2E7",
"L	c #E7E4E9",
"M	c #E2E7EA",
"N	c #E9E6EB",
"O	c #E6EAED",
"P	c #EDF0ED",
"Q	c #F5F2F6",
"R	c #F8F5FA",
"S	c #F3F8FB",
"T	c #F9FBF8",
"U	c #FBFDFA",
"V	c #FCFFFB",
"W	c #FDFFFC",
"O                   ",
"VP                  ",
"VV                  ",
"VKV                 ",
"VqqV                ",
"Vr#rV               ",
"Vr&*sV              ",
"Vs-;>vV             ",
"Vv>,'!wV            ",
"Vt)!]]^xV           ",
"Vw]^/(:|zV          ",
"Vx_::|356AV         ",
"Vy:145690cCV        ",
"Vz4669acehhCV       ",
"VB90adefhhecAV      ",
"VAcdhffhdc096zV     ",
"VChhheda06653|yV    ",
"VChbca96541:}(/yV   ",
"VCa09653|pyxxxwwLV  ",
"VA6641|:(IVVVVVVVVV ",
"Vz41::Hk]mV         ",
"Vy:</HVE)'NV        ",
"Vx/]HVVS7>oV        ",
"Vx~HV  Vn-2RV       ",
"VvGV   VM%#DV       ",
"VQV     Vl@iV       ",
"VV      VF++JU      ",
"V        TjDTV      ",
"         VVVV       ",
"         VV         "};
