/* XPM */
static char * goal_back_xpm[] = {
"84 211 5 1",
" 	c #00FF00",
".	c #1F1F1F",
"+	c #464646",
"@	c #B4B4B4",
"#	c #FFFFFF",
"                                                                                ++++",
"                                                                               +++++",
"                                                                             ++++..+",
"                                                                          ++++.....+",
"                                                                        ++++.......+",
"                                                                       +++.........+",
"                                                                     ++++..........+",
"                                                                     +++...........+",
"                                                                     ++............+",
"                                                                     ++............+",
"                                                                     ++............+",
"                                                                     ++............+",
"                             ###                             @       ++............+",
"                             ##                              @       ++............+",
"                           +###                              @       ++............+",
"                           +###                              @       ++............+",
"                          ++###@@@@@@@@@@@@@@@@@@@@@@@@@@@@@@@@@@@@@@++............+",
"                          ++##+                              @       ++............+",
"                          +##++                              @       ++#.........##+",
"                         +###++                              @       ++##.......###+",
"                         +###++                              @       ++############+",
"                        ++###+                               @       ++############+",
"                        +###++                               @       ++############+",
"                      ++####++                               @       ++############+",
"                     +++####++                               @       ++############+",
"                     ++#####++                               @       ++############+",
"                    ++######+                                @       ++############+",
"                    +#######+                                @       ++############+",
"                   ++####+##+                                @       ++############+",
"                 +++####++##+                                @       ++############+",
"                +++####+++##+                                @       ++############+",
"                ++####++ +##+                                @       ++############+",
"                +####+++ +##+                                @       ++############+",
"               +####+++  +##+                                @       ++############+",
"              ++####++   +##+                                @       ++############+",
"            +++####+@    +##+                                @       ++############+",
"            ++### ++@    +##+@@@@@@@@@@@@@@@@@@@@@@@@@@@@@@@@@@@@@@@@++############+",
"            +### +++@   @+##+@@@@@@@@@@@@@@@@@@@@@@@@@@@@@@@@@@@@@@@@++############+",
"           +####+++ @   @+##+                                @       ++############+",
"          ++####++  @  @ +##+                                @       ++############+",
"         +++###++   @ @@ +##+                                @       ++############+",
"        +++###++    @@@@ +##+                                @       ++############+",
"       ++####++     @@   +##+                                @       ++############+",
"       +####++     @@    +##+                                @       ++############+",
"      ++####++     @@    +##+                                @       ++############+",
"     ++####++@   @@@@    +##+                                @       ++############+",
"    ++####++@@   @@ @    +##+                                @       ++############+",
"    +####+++@@  @@@ @    +##+                                @       ++############+",
"  ++####++  @@  @   @    +##+                                @       ++############+",
"  ++###++@  @@ @@   @    +##+                                @       ++############+",
" ++####+ @  @@@@    @    +##+                                @       ++############+",
"++####++ @  @@@@    @    +##+                                @       ++############+",
"++###+++ @  @@@     @    +##+                                @       ++############+",
"+###+++  @  @@      @    +##+                                @       ++.#########..+",
"####++   @  @@      @    +##+                                @       ++..#######...+",
"##++     @@@@@      @    +##+                                @       ++............+",
"##++     @@@@@      @    +##+                                @       ++............+",
"#++      @@ @@      @    +##+                                @       ++............+",
"++      @@  @@      @    +##+                                @       ++............+",
"+@      @@  @@      @    +##+                                @       ++............+",
" @     @@@  @@      @   @+##+@@@@@@@@@@@@@@@@@@@@@@@@@@@@@@@@@@@@@@@@++............+",
" @   @@@ @  @@      @  @ +##+                                @       ++............+",
" @  @@@  @  @@      @ @@ +##+                                @       ++............+",
" @  @@   @  @@      @@@@ +##+                                @       ++............+",
" @  @    @  @@      @@@  +##+                                @       ++............+",
" @ @     @  @@      @@   +##+                                @       ++............+",
" @@@     @  @@      @    +##+                                @       ++............+",
" @@@     @  @@     @@    +##+                                @       ++............+",
"@@       @  @@    @@@    +##+                                @       ++............+",
"@@       @  @@   @@ @    +##+                                @       ++............+",
"@@       @  @@  @@@ @    +##+                                @       ++............+",
" @       @  @@  @@  @    +##+                                @       ++............+",
" @       @  @@  @   @    +##+                                @       ++............+",
" @       @  @@ @    @    +##+                                @       ++............+",
" @       @  @@@@    @    +##+                                @       ++............+",
" @       @  @@@@    @    +##+                                @       ++............+",
" @       @  @@@     @    +##+                                @       ++............+",
" @       @  @@      @    +##+                                @       ++............+",
" @       @  @@      @    +##+                                @       ++............+",
" @       @ @@@      @    +##+                                @       ++............+",
" @       @@@@@      @    +##+                                @       ++............+",
" @      @@  @@      @    +##+                                @       ++............+",
" @      @@  @@      @    +##+                                @       ++............+",
" @     @@@  @@      @    +##+                                @       ++............+",
" @     @ @  @@      @    +##+                                @       ++............+",
" @    @@ @  @@      @    +##+           @@@@@@@@@@@@@@@@@@@@@@@@@@@@@++............+",
" @   @@  @  @@      @   @+##+@@@@@@@@@@@@@@@@@@@@@@@@@@@@@@@@@@@@@@@@++............+",
" @  @@   @  @@      @  @ +##+                                @       ++#.........##+",
" @  @    @  @@      @ @@ +##+                                @       ++##.......###+",
" @ @     @  @@      @@@@ +##+                                @       ++############+",
" @@@     @  @@      @@@  +##+                                @       ++############+",
" @@@     @  @@      @@   +##+                                @       ++############+",
" @@      @  @@     @@    +##+                                @       ++############+",
"@@       @  @@     @@    +##+                                @       ++############+",
"@@       @  @@   @@ @    +##+                                @       ++############+",
" @       @  @@  @@@ @    +##+                                @       ++############+",
" @       @  @@  @@  @    +##+                                @       ++############+",
" @       @  @@  @   @    +##+                                @       ++############+",
" @       @  @@ @    @    +##+                                @       ++############+",
" @       @  @@@@    @    +##+                                @       ++############+",
" @       @  @@@@    @    +##+                                @       ++############+",
" @       @  @@@     @    +##+                                @       ++############+",
" @       @  @@@     @    +##+                                @       ++############+",
" @       @  @@      @    +##+                                @       ++############+",
" @       @ @@@      @    +##+                                @       ++############+",
" @       @@@@@      @    +##+                                @       ++############+",
" @       @@@@@      @    +##+                                @       ++############+",
" @      @@  @@      @    +##+                                @       ++############+",
" @     @@@  @@      @    +##+                                @       ++############+",
" @     @ @  @@      @    +##+                                @       ++############+",
" @    @@ @  @@      @    +##+                                @       ++############+",
" @   @@  @  @@      @   @+##+@@@@@@@@@@@@@@@@@@@@@@@@@@@@@@@@@@@@@@@@++############+",
" @  @@@  @  @@      @   @+##+@@@@@@@@@@@@@@@@@@@@@@@@@@@@@@@@@@@@@@@@++############+",
" @  @    @  @@      @@@@ +##+                                @       ++############+",
" @ @     @  @@      @@@  +##+                                @       ++############+",
" @@@     @  @@      @@   +##+                                @       ++############+",
" @@@     @  @@      @    +##+                                @       ++############+",
" @@      @  @@     @@    +##+                                @       ++############+",
"@@       @  @@    @@@    +##+                                @       ++############+",
"@@       @  @@   @@ @    +##+                                @       ++############+",
" @       @  @@  @@  @    +##+                                @       ++############+",
" @       @  @@ @@@  @    +##+                                @       ++############+",
" @       @  @@@@    @    +##+                                @       ++.#########..+",
" @       @  @@@@    @    +##+                                @       ++..#######...+",
" @       @  @@@     @    +##+                                @       ++............+",
" @       @  @@      @    +##+                                @       ++............+",
" @       @ @@@      @    +##+                                @       ++............+",
" @       @@@@@      @    +##+                                @       ++............+",
" @       @@@@@      @    +##+                                @       ++............+",
" @       @@ @@      @    +##+                                @       ++............+",
" @      @@  @@      @    +##+                                @       ++............+",
" @     @@@  @@      @    +##+                                @       ++............+",
" @     @ @  @@      @    +##+                                @       ++............+",
" @   @@  @  @@      @   @+##+@@@@@@@@@@@@@@@@@@@@@@@@@@@@@@@@@@@@@@@@++............+",
" @  @@@  @  @@      @ @@ +##+                                @       ++............+",
" @  @@   @  @@      @@@@ +##+                                @       ++............+",
" @ @     @  @@      @@@@ +##+                                @       ++............+",
" @@@     @  @@      @@@  +##+                                @       ++............+",
" @@@     @  @@     @@@   +##+                                @       ++............+",
"@@       @  @@   @@@@    +##+                                @       ++............+",
"@@       @  @@  @@@@@    +##+                                @       ++............+",
" @       @  @@  @@@ @    +##+                                @       ++............+",
" @       @  @@  @@  @    +##+                                @       ++............+",
" @       @  @@ @@   @    +##+                                @       ++............+",
" @       @  @@@@    @    +##+                                @       ++............+",
" @       @  @@@@    @    +##+                                @       ++............+",
" @       @  @@      @    +##+                                @       ++............+",
" @       @ @@@      @    +##+                                @       ++............+",
" @       @@@@@      @    +##+                                @       ++............+",
" @       @@@@@      @    +##+                                @       ++............+",
" @      @@@ @@      @    +##+                                @       ++............+",
" @      @@  @@      @    +##+                                @       ++............+",
" @    @@ @  @@      @    +##+                                @       ++............+",
" @   @@@ @  @@      @    +##+                                @       ++............+",
" @  @@@  @  @@      @    +##+                                @       ++............+",
" @  @@   @  @@      @    +##+                                @       ++............+",
" @  @    @  @@      @    +##+@@@@@@@@@@@@                    @       ++............+",
" @@@     @  @@      @   @+##+@@@@@@@@@@@@@@@@@@@@@@@@@@@@@@@@@@@@@@@@++#.........##+",
" @@@     @  @@      @  @@+##+           @@@@@@@@@@@@@@@@@@@@@@@@@@@@@++##.......###+",
"@@       @  @@      @@@@ +##+                                @       ++############+",
"@@       @  @@      @@@  +##+                                @       ++############+",
" @       @  @@      @@   +##+                                @       ++############+",
" @       @  @@     @@    +##+                                @       ++############+",
" @       @  @@    @@@    +##+                                @       ++############+",
" @       @  @@   @@@@    +##+                                @       ++############+",
" @       @  @@  @@  @    +##+                                @       ++############+",
" @       @  @@ @@   @    +##+                                @       ++############+",
" @       @  @@@@    @    +##+                                @       ++############+",
" @       @  @@@@    @    +##+                                @       ++############+",
" @       @  @@@     @    +##+                                @       ++############+",
" @       @  @@      @    +##+                                @       ++############+",
" @       @ @@@      @    +##+                                @       ++############+",
" @       @@@@@      @    +##+                                @       ++############+",
" @      @@@ @@      @    +##+                                @       ++############+",
" @      @@  @@      @    +##+                                @       ++############+",
" @     @@@  @@      @    +##+                                @       ++############+",
" @    @@ @  @@      @    +##+                                @       ++############+",
" @   @@@ @  @@      @   @+##+@@@@@@@@@@@@@@@@@@@@@@@@@@@@@@@@@@@@@@@@++############+",
" @  @@@  @  @@      @ @@ +##+                                @       ++############+",
" @ @@@@  @  @@      @@@@ +##+                                @       ++############+",
" @@@ @@  @  @@      @@@  +##+                                @       ++############+",
" @@@ @@  @  @@      @@   +##+                                @       ++############+",
"@@@  @@  @  @@     @@    +##+                                @       ++############+",
"@@   @@  @  @@    @@@    +##+                                @       ++############+",
"@@   @@  @  @@    @@@    +##+                                @       ++############+",
" @   @@  @  @@  @@@ @    +##+                                @       ++############+",
" @   @@  @  @@  @@  @   ++##+++++++++++++++++++++++++++++++++++++++++++############+",
"     @@  @  @@ @@   @   ++###++++++++++++++++++++++++++++++++++++++++++############+",
"     @@  @  @@@@    @   +############################################++############+",
" @   @@  @  @@@@    @ ++#############################################++############+",
" @   @@  @  @@@     @+++#############################################++############+",
" @   @@  @ @@@      ++###+++++++++++++++++++++++++++++++++++++++++++++++#########+++",
" @   @@  @@@@@     ++###+++++++++++++++++++++++++++++++++++++++++++++++++#######++++",
" @   @@  @@@@@    ++####++                                            ++++++++++++++",
" @   @@ @@@ @@    ++####++                                              +++++++++   ",
" @   @@ @@  @@  +++###++                                                            ",
" @   @@@@@  @@  +++##+++                                                            ",
" @   @@@ @  @@ +++###++                                                             ",
" @  @@@  @  @+++###++                                                               ",
" @  @@@  @  +++####++                                                               ",
" @  @@@  @  ++####++                                                                ",
" @@@     @ ++###+++                                                                 ",
" @@@     @++####+++                                                                 ",
" @@      +++####                                                                    ",
"@@      ++####++                                                                    ",
" @     ++####++                                                                     ",
" @     +####++                                                                      ",
" @     +####++                                                                      ",
" @  +  ####+                                                                        ",
" @                                                                                  ",
" @                                                                                  "};
