/* XPM */
static char * personagem_chutar_frente_3_xpm[] = {
"75 75 91 1",
" 	c #00FF00",
".	c #000000",
"+	c #020C49",
"@	c #141529",
"#	c #171B37",
"$	c #191E46",
"%	c #282644",
"&	c #212A59",
"*	c #252A4F",
"=	c #212A66",
"-	c #3B2D23",
";	c #2B2F4F",
">	c #273467",
",	c #233682",
"'	c #2B3976",
")	c #613805",
"!	c #2D4185",
"~	c #2D4495",
"{	c #3B4C7C",
"]	c #5E4739",
"^	c #374E9D",
"/	c #255976",
"(	c #4C4F63",
"_	c #385197",
":	c #465170",
"<	c #3752AB",
"[	c #784D02",
"}	c #3C5FB0",
"|	c #506694",
"1	c #267495",
"2	c #7E6453",
"3	c #626A7C",
"4	c #596D8C",
"5	c #4270C3",
"6	c #966A05",
"7	c #8E6D4F",
"8	c #467CD6",
"9	c #9D732B",
"0	c #728293",
"a	c #5189C6",
"b	c #448CD3",
"c	c #3397B3",
"d	c #A58302",
"e	c #6C88AA",
"f	c #9B7F71",
"g	c #429DD0",
"h	c #28A8CD",
"i	c #AA8871",
"j	c #AD8967",
"k	c #8094A3",
"l	c #B7972F",
"m	c #BE9953",
"n	c #F2877E",
"o	c #C1A10F",
"p	c #8AA5B2",
"q	c #32BEDF",
"r	c #BD9C86",
"s	c #5DB4E2",
"t	c #A1A9B4",
"u	c #54BDE7",
"v	c #CAA374",
"w	c #8CB0D6",
"x	c #E89A91",
"y	c #CAA687",
"z	c #9AB6C0",
"A	c #CDAB93",
"B	c #D6BA00",
"C	c #DABC75",
"D	c #F7B09D",
"E	c #5DD9FB",
"F	c #E0BCA4",
"G	c #A9CBD0",
"H	c #C4CDD6",
"I	c #F1C8B0",
"J	c #E6CAC4",
"K	c #F5CD9B",
"L	c #BADADF",
"M	c #F3DE02",
"N	c #FAD5BC",
"O	c #FFD4B7",
"P	c #FFD4BD",
"Q	c #FDD6B7",
"R	c #CDE8EF",
"S	c #FFED00",
"T	c #DFE6EE",
"U	c #DBEAF1",
"V	c #D4EDEB",
"W	c #E4F5FB",
"X	c #FBF0E5",
"Y	c #E9F8F8",
"Z	c #F1F8FF",
"                  )))[[[[)                                                 ",
"                  )96doBBBooddddddooodd                                    ",
"                  )[666oBBMMMMBBBBBBMMBod                                  ",
"            6oBMMBodd666oBBMSSSMBBBBBBSSMBod                               ",
"            )6dBMMSMMBd66oBBMSSSSMMBBBBMSSMBld                             ",
"             )66oMSSSSMBddoBMSSSSSSSMBBBSSSMMmd                            ",
"              [66doMSSSSMddBBSSSSSSSSSMBBSSSSMBl                           ",
"              )[666dBMSSSMBdBMSSSSSSSSSMBMSSSSMBd                          ",
"            )))))[666oMSSSSMBBMSSSSSSSSSSMSSSSSMBd                         ",
"           )))))))[666dBMSSSMBBSSSSSSSSSSSMSSSSSMo                         ",
"          ))))))))))[666BMSSSMBMSSSSSSSSSSSSSSSSSMm                        ",
"         ))))[666[[))[666oMSSSMBMSSSSSSSSSSSSSSSSMB                        ",
"         ))))[666666[[[666dBMSSMBMSSSSSSSSSSSSSSSSM                        ",
"        )))))[ooodd6666[[666oBMSMBMSSSSSSSSSSSSSSSB                        ",
"       ))))[d6oBBBold66666666dBMMMBBSSSSSSSSSSSSSMB                        ",
"      )))))[oooommmCCvmm9666666dBMMBBMSSSSSMSSSSSMm                        ",
"      )))))[oomyyyyyAAAFFyvmm6666dBBBBBMSSSMMSSMMCj                        ",
"     ))))[66mvyyAyyFNQQQQQQQQQCvm66doBBBBMSMMMMBCFFf                       ",
"    )))))[6mvyAyyFOOOOOOOOOOOOQQQQCm6ddoBBBBoolvNNNr                       ",
"    )))))66vyAAyFQOOOOOOOOOOOOOOOOQQQCCClddddmQPPPPIf                      ",
"    ))))[6myAAAAOQOQQQQQPOQQOOOOOQOQPQOQQQQQQQOPPPPNr                      ",
"   )))))[6vyAAAFPOOOFFNNNNQQOOOOOOOPPOOQQQQQQPPPPPNOr                      ",
"   )))))[6vyyyAIOOQQA--2iAINNNNNQQPPPPPOQQQQPPPNNNAfi                      ",
"   )))))[6vyyyAIQQQQA]@@@@.-]fAFINNNNNNPOQQNIFAr2-@-rf                     ",
"   )))))[6vyyAAIQQQQ]-@@@@@@@@--2NPNFFINOQQN2--@@@@-Af                     ",
"   )))))[6myyyAFQQQQNAi-...@@@-@fNPNFyyIOQNF]@@@@@@]Ff                     ",
"   )))))[69yAAAFQQQQNXXXXXF..@JXJNPNFyAOOONiiXF..-JXNi                     ",
"  ]2ff77[66yyAAAQQQONNXXXXF..-XXXPQNNryOOQI]iXF@@@XXNr                     ",
"  fFFFif796myAAAINPPPNNXXXJ..2XXNPOQQrrONNF-]]----rNNF                     ",
" 2NNNNPFj966vyAAFNPPOQNNXXXFFNNNQOPOQF2FNNr-]2AIAi-rPNf                    ",
"]ANNNNONIj966vyyyFPPPOOIIIIIIOOQOPQONNi]22]]FNNNNNr]DIi                    ",
"2ONAiirIOF9666mryAFPIDnnnnnnnxDIPQQQQNNr2]2FNQQNNNF]nny                    ",
"2OF222]fQQv669vyyFNOxnnnnnnnnnnxNPONQOQNNNNNNNQPQNF]nnxi                   ",
"2IFyFr]]rQy9mvyFOOOOxnnnnnnnnnnxNNNOPPQQOPPNIArAFAf]yxNA                   ",
"2AFyyf]22ryvyyFQPOOPDxxxxxxnnnnxPOPNFNQQOPNFiifff2-ANPNOi                  ",
"]ryyy27777ryyAQQOOOPPOOPPPPPIDIOPOOONAINQNFiffff2]fNOOONF                  ",
"]jyyvrj7jjrArFQQOQOOOOOOOQQQQOOOOOOOQFrOQFiiiff2]2IONQOOFf                 ",
" fryyyvvrrArrOQQOOOOOOOOOOOOQQQOOOOOOQrAFrrrrrrf2FOOOPNNNi                 ",
" -iyyAyyyyriFPOQOOOOOOOOOOOOOOOOOOOOOQF2Ariffirf2NQNOONQNr                 ",
"  2rAAyyAAriNPOQOOOOOOOOOOOOOOOOOOOOOOF22]----]2fNOOOONQPI                 ",
"  2rAAAyAAirNPOQOOOOOOOOOOOOOOOOOOOOOQF]]------2fNOOOOPONIi                ",
"   iyAAyAriANPOQOOOOOOOOOOOOOOOOOOOQONA2rFFFFFAr2IOOOOOOQOi                ",
"   ryAAAAriANPOQOOOOOOOOOOOOOOPPPPNONIfFAyyyyyrArAPPPPQOONr                ",
"   ryAAAAriFNPOQOOOOOOOOOOOOOOPPPPOOIfrNNFyrrrrFNFPPPPQOPNr                ",
"   ryAAAAriANPOQOOOOOOOOOOOOOOPPPPNNAiNPNNNFFFFNNPOPPPQOONi                ",
"   ryAAAArirNPOQOOOOOOOOOOOOOOPPPPNIyNNPNNNNNNNNNPPPPPQOPIf                ",
"   iyAAAArjiOPOQOOOOOOOOOOOOOOPPPPNAIQOONNNNNNNNNOOOPPPONA                 ",
"   2rAAAAAriFNNNOOOOOOOOOOOOOOOOOOOFNNPPNNNNNNNNNOOAPOPPOi                 ",
"   2rrAAArriiNNQOOOOOOOOOOOOOOOOOOOINNNNNNNNNNNNNOOrIPNNFf                 ",
"    frrAAAAriANQOOOOOOOOOOOOOOOOOOQFNNNNNNNNNNNNNNFiANNNA                  ",
"    2irrAAArrrFQOOOOOOOOOOOOOOOOOPFyyINNNNNNNNNNNIAfiFNFf                  ",
"      2rrAAAAyrFOOOOOOOOOOOOOOOOOQrAAAAFONNNNNIFAAA2fiif                   ",
"       2frrAAAyAAIPPNNNNNPOOOPPNIyjAAAAAAAAAAAyyyAi2ff22                   ",
"         2irrAAAAAAFIQOQPPPPPOIAAriiAAAAAAAAAyyAAr2]]]>'                   ",
"           22irrrrAAAAAAFFFFAAAAriiirAAAAAAAAyAAr2]-&%&>>*>=kL  R          ",
"               2fffiiirrAAAAAAArifiiirAAAAAAAAAi2]-:&*>>>&*:tRWUURRLVVLLL  ",
"                      222fffff2222222firrrrrrr2]--tt3kt:>{:tUYYYWYWWYYYWLz ",
"                                 ~}55}222222]]]WHHTHHHt3kttTYZZZZZZZZZWRz|=",
"                                ='^}5555}_4GUWWURTTHTHttTTTZZZZZZZZZWULp4}!",
"                                ='^^}555}_kRYZWRUZZZZZTLWZZZZZZZZZYYWGe_^<'",
"                                =!<<^}}_^|zWZURWZZZZZZWWYZZZZZZZZYYRLk_<<~&",
"                                 !<<<<~~,pUZZURWZZZZZZWWZZZZZZZZWLGpe{<^!&#",
"                                 !^<<<_4pHZZWUWZZZZZZWWWZZZWWWWRGk4_~~!'$  ",
"                                 1{~_|kGRWZZWUWZZZZZZWWYZWURRRGp|_^~!''*   ",
"                                 h1{ezGRYZZYUWZZZZZZYUUURLGGze|~<^!& #*#   ",
"                                 qqhaGRWYZZWRUWZZZWWUGGzk444|_<<<!&#  @    ",
"                                 qEEgzRYWWWWRRUUUULze{||_<<~~!!!!&$@       ",
"                                 qEEuswUUUUULGGLGpe|^^~~~^<!'>>>*          ",
"                                  qEEuswzGwwpe404!~~,>''>''& #%#           ",
"                                  qEEEEuswss|^<_~!'=&$  #*#@               ",
"                                   sqEEEqusa}<<^'$ #$                      ",
"                                   5bguhga}<^~!>*                          ",
"                                    }}5a_!>''''&#                          ",
"                                     ''''>%  **#                           ",
"                                       #**@                                "};
