/* XPM */
static char * personagem_2_chutar_frente_3_xpm[] = {
"74 75 72 1",
" 	c None",
".	c #000000",
"+	c #1F190F",
"@	c #3C3027",
"#	c #484C50",
"$	c #646664",
"%	c #1B1B18",
"&	c #2C2E2B",
"*	c #5D473A",
"=	c #7E6453",
"-	c #CAA586",
";	c #A98771",
">	c #D4A075",
",	c #EAC191",
"'	c #A98664",
")	c #BD9C86",
"!	c #DFBCA5",
"~	c #FFD4B7",
"{	c #F6D6B5",
"]	c #CDAB93",
"^	c #5D3A18",
"/	c #FCD5BD",
"(	c #FAEFE3",
"_	c #8B6644",
":	c #9B8072",
"<	c #868885",
"[	c #C5CED7",
"}	c #A3AAB4",
"|	c #FFFFFF",
"1	c #DFE6EF",
"2	c #C9A065",
"3	c #282644",
"4	c #2B3976",
"5	c #273467",
"6	c #212A59",
"7	c #252A4F",
"8	c #CFE9EF",
"9	c #BCDBE0",
"0	c #8194A3",
"a	c #212A66",
"b	c #2B2F4F",
"c	c #267596",
"d	c #D4EDEB",
"e	c #E6F7FA",
"f	c #465170",
"g	c #646C7E",
"h	c #738394",
"i	c #AACCD1",
"j	c #374F9E",
"k	c #95B0BB",
"l	c #3B4C7C",
"m	c #2D4496",
"n	c #506794",
"o	c #F1F8FF",
"p	c #395398",
"q	c #2E4287",
"r	c #3D61B2",
"s	c #4271C3",
"t	c #596D8C",
"u	c #3753AC",
"v	c #6D89AB",
"w	c #171B37",
"x	c #243783",
"y	c #191E46",
"z	c #28A8CD",
"A	c #141529",
"B	c #528AC7",
"C	c #35BEDF",
"D	c #429DD0",
"E	c #5DD9FB",
"F	c #8EB1D7",
"G	c #5DB4E2",
"                                     .+.                                  ",
"                                  +@#$#%%.. .&#&&@+++&%.                  ",
"                               %&&&#$$#&%&#&%&$$$$$$#&&#&+ +.             ",
"                             %&###&$$$#&%%$$#%&#$$$$$$&&###++.            ",
"                           .&###$#$$$$#&%%$$$&&%&$$$$$+%&$#+++.           ",
"                       %% +#$##$#$$$$$#&%%#$$#&&%#$$$$%%&#$@&++.          ",
"                       % .#$##$$#$$$$$#&%%#$$$&&%%$$$&%%&##@&&++          ",
"                      %&.#$$##$#$$$$$$&&%%#$$$&&%%$$$%%%&&#+%&++.         ",
"                      %#&$$$#$$#$$$$$#&&%%#$$$&&%%#$#%%%&&&%%&+++.        ",
"                      &#$$$#$$#$$$$$$#&&%%#$$$&&%%#$&%%%&&%%&&++++        ",
"                      &#$$##$$#$$$$$$&&%%%#$$$&%%%&&%%%&&%%%&&++++        ",
"                      &$$$+$$$&$$$$$$&&%%%#$$#&%%%%%%%&&%%%&&%+++.        ",
"                      &$##+#$#&$$$$$#&%%%%&$#&%@*=**@+%%%%&&&%%&&.        ",
"                      %#&+%&$#&$$$$#&&%%%&%&&+=------;@++%%%%%&##%        ",
"                       %&%+&##&#$$$&&%%&#$#+=-->>,,,,--'*+%%&##$$#.       ",
"                      &#&%@);#+#$$&&&%+++#$*->,!~{{{{{,>-*@@@@@@@&+       ",
"                     &$#@@!{~)+&#&&&+*;;;@#*-{{{{{{{{{~,>-----))=++.      ",
"                    %$#*-~{{{{;&&&+@;--{{]*@!{{{{{{{{{~!-,>---=@&+++.     ",
"                    %#@'{{{{{{{)&@=---{{{{]@!{{{{{{{{{{{{{,-'*@&%%+++     ",
"                    %+ {{{{{{{{{;---{{{{{{{=){{{{{{{{{{{{{,-'@%%%++++.    ",
"                    % ^~{{{{{{{{~-~{{{{{{{{]){{{{{/{////];=---;;;;@+++    ",
"                    % ;~~{{{{{{{{{{{{{{{{{{!-{{{{/(/!)=@@+@_->---=++++    ",
"                    + **=!/{{{{{{{{{{{{{{{{/{/(((:$*@@@@@@@->>-=@@%+++    ",
"                    + =@@@=]((/!{{{{{~{{{{(((!<*@@@@@@@&%+@'>-*@&%%+++.   ",
"                      =@@@@@@:!-~{{{{-~{((!:@@@@@@@@++++@*_->>=&&%%+++.   ",
"                      _*++@@@@@=-~-{{--!!=@@@@@@&+%%#$:=__'>>>;@%%%++++   ",
"                      ')[.%%%&@+*-,~{,'_@@@+&&+%%%..}|(/'_'>>>;@%%%+++.   ",
"                      '/(...%%++@->,{~-^@++++%....%#}|||/_'->>;+%%%%++.^  ",
"                      )((.[#..%$),,,{~,'*@&&$.....%#<|||(;'->-;+%%%+*_>'^ ",
"                      -((&|$..%[/~~,{{~,-(}<1#....&#<||||]'->-=++@='>>>>' ",
"                      -((#|$..&[({{{{{{{/([}|$....##}||||('>>-**'->>>>>>>_",
"                      -(|<[&.%&1({{{{{{{{([}|$...%$&[||||(----'>>>>>>>'2>_",
"                      -(|}%..&#|({{{{{{{{(|$[....###|||||(---->->>>-_^__>_",
"                      -(||<%#&}|({{{{{{{{(|}...%&#&1|||||(-->-->>>>_^_>>>_",
"                      -(|||}}[||(!{{{{{{{(||[<.%#}1||||||(-->>->>>_^^_>>>_",
"                      -/(((((||(:'{{{{{{{(||||((((((((|||(->>>>>>-^_'>>>>_",
"                      '-!!!!//!;___{{{{{{{///////!!!!!!!!->>>>>>>>_2>>>>'_",
"                     ^,{{{{{{{{{{{!{{{{{{{{{{{{{{{{{{{{->>>>>>>>>>'>>>>>^ ",
"                    _{{{{{{{{{{{{{{{{{{{{{{{{{{{{{{{{{{{~->>>>>>>>>>>>>__ ",
"                   ^!{{{{{{{{{{{{{{{{{{{{{{{{{{{{{{{{{{{{{,>>>>>>>>>>>_^  ",
"                   '{{{{{{{{{{{{{-);;;;;)!{{{{{{{{{{{{{{{{{->>>>>>>>>>_   ",
"                  ^!{{{{{{{{{{{-^^^^^^^^^_{{{{{{{{{{{{{{{{{{,>>>>>>>>>_   ",
"                  _{{{{{{{{{{-'-{{{{{{{-_^!{{{{{{{{{{{{{{{{{~>>>>>>>>>_   ",
"                  '{{{{{{{{{{{{{{{{{{{{{{{{{{{{{{{{{{{{{{{{{~>>>>>>>>>'   ",
"                  '{{{{{{{{{{{{{{,>>>>,,{{{{{{{{{{{{{{{{{{{{~,>>>>>>>>>   ",
"                  '{{{{{{{{{{{{{{{~!,,,{{{{{{{{{{{{{{{{{{{{{{,>>>>>>>>'   ",
"                  _{{{{{{{{{{{{{{{{{{{{{{{{{{{{{{{{{{{{{{{{{~>>>>>>>>>_   ",
"                  ^!{{{{{{{{{{{{{{{{{{{{{{{{{{{{{{{{{{{{{{{{,>>>>>>>>-_   ",
"                   _{{{{{{{{{{{{{{{{{{{{{{{{{{{{{{{{{{{{{{{,>>>>>>>>>_    ",
"                    '{{{{{{{{{{{{{{{{{{{{{{{{{{{{{{{{{{{{{~,>>>>>>>>_     ",
"                    ^-~{{{{{{{{{{{{{{{{{{{{{{{{{{{{{{{{{{{>>>>>>>>'_      ",
"                     ^_!{{{{{{{{{{{{{{{{{{{{{{{{{{{{{{{~,>>>>>>>-'_       ",
"                      3^'!~{{{{{{{{{{{{{{{{{{{{{{{{{~~,>>>>>>>-'_^        ",
"                   456775^_-!~{{{{{{{{{{{{{{{{{{~~,,>>>>>>>>'__           ",
"          8  90a5755636555bc__'----~~~~{{{{{{!-->>>>>---'___^             ",
"  999dd98888e8}f7655576fgghg0ih4j ___________________                     ",
" k98eeeeeeeeee1}fl5f}0g}}h[[}[klm4a    4                                  ",
"ank8eoooooooooe10}0g}[[[1[[eoe9hpqppprssrm                                ",
"qrtk91eooooooooo111}}[1[1188ee8itqrssssrj4a                               ",
"4ujpvieeeoooooooooe91ooooo88eoe80prsssrjj4a                               ",
"6muuq098eeooooooooe8eoooooo88eoeinjprjjuuqa                               ",
"w64julvki9eooooooooeeooooooe81oo1kxmmuuuuq                                ",
"  y4qmmpt0i8eeeeoooeeeooooooe8eoo[0tpuuuj4                                ",
"   7444mjpn0i8888eoeeeooooooe8eooe8i0npmlc                                ",
"   w7w 6qjumnvkii98888eoooooo88eooe8ikvlcz                                ",
"    A  w6quuupnttt0kii1eeoooe88eooee8iBzCC                                ",
"       Ay6qqqqmmuupnnlv}9118889eeeee8kDEEC                                ",
"          75554qujmmmjjnvki9ii918881FGGEEC                                ",
"           w3w 6445445xmmqthtvkFFiiFGEEEC                                 ",
"               Aw7w  y6a4qmpujnGGGGGEEEEC                                 ",
"                      yw y4juurBGGCEEECG                                  ",
"                          75qmjupBDzGDBs                                  ",
"                          w644445qpssrr                                   ",
"                           w77  354444                                    ",
"                                A77w                                      "};
