/* XPM */
static char * play_sem_xpm[] = {
"50 50 71 1",
" 	c None",
".	c #010929",
"+	c #0B0A2B",
"@	c #151942",
"#	c #1C2146",
"$	c #232546",
"%	c #1C2A59",
"&	c #1F2D5C",
"*	c #292D53",
"=	c #252E59",
"-	c #2E2E50",
";	c #2D3057",
">	c #2F3259",
",	c #2B335E",
"'	c #31345C",
")	c #313865",
"!	c #333A67",
"~	c #363D69",
"{	c #393F6C",
"]	c #394250",
"^	c #364173",
"/	c #314475",
"(	c #384275",
"_	c #344677",
":	c #364879",
"<	c #334B81",
"[	c #364D84",
"}	c #384F86",
"|	c #47505C",
"1	c #3B5289",
"2	c #43517E",
"3	c #3E548B",
"4	c #3B5794",
"5	c #3F5A97",
"6	c #425C9A",
"7	c #4A5D8D",
"8	c #445E9C",
"9	c #4060A2",
"0	c #4362A5",
"a	c #5B646F",
"b	c #4766A9",
"c	c #4968AC",
"d	c #556EA2",
"e	c #5E6D94",
"f	c #707D84",
"g	c #518B94",
"h	c #6F84AB",
"i	c #7F8D95",
"j	c #91A3BA",
"k	c #9DABB2",
"l	c #78CECD",
"m	c #AEBECA",
"n	c #74D6D3",
"o	c #77D8D6",
"p	c #B9C6C7",
"q	c #83DAD9",
"r	c #8FDCDD",
"s	c #BDCEDB",
"t	c #95DED9",
"u	c #A1E2DE",
"v	c #AEE6E4",
"w	c #CEDFE2",
"x	c #BAE9E9",
"y	c #C5ECED",
"z	c #C9EDE9",
"A	c #D8EDED",
"B	c #D3F0ED",
"C	c #E0F4F3",
"D	c #E1F6F5",
"E	c #E2F7F6",
"F	c #FFFFFF",
"     nnnnnnnnnnnnnnnnnnnnnnnnnnnnnnnnnnnnnnnn     ",
"    qlgggggggggggggggggggggggggggggggggggggglq    ",
"   ql2&====================================&2lq   ",
"  ql2&=;;;;;;;;;;;;;;;;;;;;;;;;;;;;;;;;;;;;=&2lq  ",
" rl2&,>>>>>>>>>>>>>>>>>>>>>>>>>>>>>>>>>>>>>>,&2lr ",
"tq2%,'''''''''''''''''''''''''''''''''''''''',%2qt",
"tg%,)))))))))))))))))))))))))))))))))))))))))),%gt",
"ug,!!!!!!!!!!!!!!!!!!!!!!!!!!!!!!!!!!!!!!!!!!!!,gu",
"ug,~~~~~~~~~~~~~~~~~~~~~~~~~~~~~~~~~~~~~~~~~~~~,gu",
"ug,{{{{{{{{{{{{{{{{{{{{{{{{{{{{{{{{{{{{{{{{{{{{,gu",
"ug)^^^^^^^^^^^^^^^^^^^^^^^^^^^^^^^^^^^^^^^^^^^^)gu",
"vg)_____________2mwpe__________________________)gv",
"ve)::::::::::::iwCCCAm7::::::::::::::::::::::::)ev",
"xf)<<<<<<<<<<1mCCCCCCCAj[<<<<<<<<<<<<<<<<<<<<<<)fx",
"xf)[[[[[[[[[7sCCCCCCCCCCsh[[[[[[[[[[[[[[[[[[[[[)fx",
"xf!111111111jCCCCCCCCCCCCCme1111111111111111111!fx",
"yf!333333331kCCCCCCCCCCCCCCAj333333333333333333!fy",
"yf/444444444kCCCCCCCCCCCCCCCCwh4444444444444444/fy",
"zf/555555554kCCCCCCCCCCCCCCCCCCmd55555555555555/fz",
"Bf/666666665kCCCCCCCCCCCCCCCCCCCAj8666666666666/fB",
"Bf/666666666kCCCCCCCCCCCCCCCCCCCCCwh86666666666/fB",
"Ai/999999999kCCCCCCCCCCCCCCCCCCCCCCCm0999999999/iA",
"Ci<000000000kCCCCCCCCCCCCCCCCCCCCCCCCj000000000<iC",
"Ci<bbbbbbbbbkCCCCCCCCCCCCCCCCCCCCCCCCkbbbbbbbbb<iC",
"Ci<ccccccccbkCCCCCCCCCCCCCCCCCCCCCCCCkbcccccccc<iC",
"Ci<ccccccccbkEEEEEEEEEEEEEEEEEEEEEEEEkbcccccccc<iC",
"Bf<bbbbbbbbbkEEEEEEEEEEEEEEEEEEEEEEEEkbbbbbbbbb<fB",
"Bf/000000000kEEEEEEEEEEEEEEEEEEEEEEEDi000000000/fB",
"Bf/999999999kEEEEEEEEEEEEEEEEEEEEEECk!999999999/fB",
"zf/888888886kEEEEEEEEEEEEEEEEEEEEEwf)5888888888/fz",
"yf/666666665kEEEEEEEEEEEEEEEEEEEAk>166666666666/fy",
"xf/555555554kEEEEEEEEEEEEEEEEECm|_4555555555555/fx",
"xf!444444444kEEEEEEEEEEEEEEEEsf!344444444444444!fx",
"xf)333333331kEEEEEEEEEEEEEEAi'}3333333333333333)fx",
"vf,111111111iEEEEEEEEEEEECm|_111111111111111111,fv",
"vf,[[[[[[[[[]sEEEEEEEEEEsa![[[[[[[[[[[[[[[[[[[[,fv",
"vf,<<<<<<<<<_-kCEEEEEEAi)<<<<<<<<<<<<<<<<<<<<<<,fv",
"ue=::::::::::_=fwEEECk|^:::::::::::::::::::::::=eu",
"ue=____________!]kwpa!_________________________=eu",
"ue=(((((((((((((^,;)^((((((((((((((((((((((((((=eu",
"ta*^^^^^^^^^^^^^^^^^^^^^^^^^^^^^^^^^^^^^^^^^^^^*at",
"ra*~~~~~~~~~~~~~~~~~~~~~~~~~~~~~~~~~~~~~~~~~~~~*ar",
"ra#!!!!!!!!!!!!!!!!!!!!!!!!!!!!!!!!!!!!!!!!!!!!#ar",
"qg+*))))))))))))))))))))))))))))))))))))))))))*+gq",
"ql]+$''''''''''''''''''''''''''''''''''''''''$+]lq",
" ql]+$>>>>>>>>>>>>>>>>>>>>>>>>>>>>>>>>>>>>>>$+]ll ",
"  ol].$;;;;;;;;;;;;;;;;;;;;;;;;;;;;;;;;;;;;$.]ll  ",
"   ll].@##################################@.]ll   ",
"    ll7aaaaaaaaaaaaaaaaaaaaaaaaaaaaaaaaaaaa7ll    ",
"     lnnnnnnnnnnnnnnnnnnnnnnnnnnnnnnnnnnnnnnl     "};
