/* XPM */
static char * number_0_xpm[] = {
"19 26 3 1",
" 	c #00FF00",
".	c #FEFEFE",
"+	c #FFFFFF",
"       ......      ",
"     ++++++++..    ",
"   ++++++++++++.   ",
"   +++++++++++++   ",
"  .++++.  ..++++.  ",
"  +++++    .+++++  ",
" .++++.     .++++. ",
" +++++      .++++. ",
" +++++      ++++++ ",
" +++++       +++++ ",
".++++.       +++++ ",
".++++.       +++++ ",
".++++.       +++++ ",
".++++.       +++++ ",
".++++.       +++++ ",
".+++++       +++++ ",
".+++++       +++++ ",
" +++++      .+++++ ",
" +++++      .++++. ",
" .++++.     .++++. ",
" .+++++    .+++++  ",
"  +++++.  .+++++.  ",
"  .++++++++++++.   ",
"   .++++++++++.    ",
"    .++++++++.     ",
"      ......       "};
