/* XPM */
static char * number_2_xpm[] = {
"18 26 3 1",
" 	c #00FF00",
".	c #FFFFFF",
"+	c #FEFEFE",
"     .++++++      ",
"   +.........+    ",
"  .............+  ",
"  ..............  ",
"  ...++ +++.....+ ",
"  .+       +....+ ",
"           ...... ",
"            ..... ",
"            ..... ",
"           +....+ ",
"           .....+ ",
"          +....+  ",
"         +.....+  ",
"        +.....+   ",
"      +......+    ",
"     +.....+      ",
"    +.....+       ",
"   +.....+        ",
"  +.....+         ",
"  .....+          ",
" +....+           ",
" .....+++++++++++ ",
" ................ ",
"+................ ",
"+................ ",
"+................ "};
