/* XPM */
static char * number_3_xpm[] = {
"17 26 3 1",
" 	c #00FF00",
".	c #FEFEFE",
"+	c #FFFFFF",
"   ........      ",
" .++++++++++.    ",
" ++++++++++++.   ",
" +++++++++++++.  ",
" +..    .+++++.  ",
" .       .+++++  ",
"          +++++  ",
"          +++++  ",
"          +++++  ",
"         .++++.  ",
"        .++++.   ",
"   +++++++++.    ",
"   +++++++.      ",
"   +++++++...    ",
"   ++++++++++.   ",
"       ..+++++.  ",
"         .+++++. ",
"          .++++. ",
"          .+++++ ",
"          .+++++ ",
".         .++++. ",
"++..    .++++++. ",
"++++++++++++++.  ",
"+++++++++++++.   ",
".++++++++++..    ",
"  ........       "};
