/* XPM */
static char * number_4_xpm[] = {
"20 26 3 1",
" 	c #00FF00",
".	c #FEFEFE",
"+	c #FFFFFF",
"           .++++.   ",
"           .++++.   ",
"          .+++++.   ",
"          .+++++.   ",
"         .++++++.   ",
"         +++++++.   ",
"        .+++++++.   ",
"       .+++.++++.   ",
"       .++. ++++.   ",
"      .+++. ++++.   ",
"     ++++.  ++++.   ",
"     ++++   ++++.   ",
"    .+++.   ++++.   ",
"   .+++.    ++++.   ",
"  .++++     ++++.   ",
"  ++++.     ++++.   ",
" .+++.      ++++.   ",
" ++++++++++++++++++.",
" ++++++++++++++++++.",
" ++++++++++++++++++.",
" ++++++++++++++++++.",
"            ++++.   ",
"            ++++.   ",
"            ++++.   ",
"            ++++.   ",
"            ++++.   "};
