/* XPM */
static char * number_7_xpm[] = {
"19 26 3 1",
" 	c #00FF00",
".	c #FFFFFF",
"+	c #FEFEFE",
" ................. ",
" ................. ",
" ................. ",
" ................+ ",
" ...........+....+ ",
"            +...+  ",
"           +....+  ",
"           ....+   ",
"          .....+   ",
"          ....+    ",
"         +....+    ",
"         ....+     ",
"        +....+     ",
"        .....      ",
"       +....+      ",
"       +....+      ",
"       .....       ",
"      +....+       ",
"      +....+       ",
"      .....        ",
"     +....+        ",
"     +....+        ",
"     .....+        ",
"     .....         ",
"    +.....         ",
"    +....+         "};
