/* XPM */
static char * number_9_xpm[] = {
"19 26 3 1",
" 	c #00FF00",
".	c #FEFEFE",
"+	c #FFFFFF",
"      ......       ",
"    .++++++++.     ",
"   .++++++++++.    ",
"  .++++++++++++.   ",
" ++++++.  .+++++.  ",
" .++++.    .++++.  ",
" +++++      .++++  ",
"+++++.      .++++. ",
".++++.      .++++. ",
".++++.      +++++. ",
" +++++      .+++++ ",
" .++++.    .++++++ ",
" .++++++++++++++++ ",
"  .+++++++++.++++. ",
"   .+++++++. ++++. ",
"     .+++.   ++++. ",
"            .++++. ",
"            .++++  ",
"            ++++.  ",
"           .++++.  ",
"          .+++++   ",
"  ..    ..+++++.   ",
"  ++++++++++++.    ",
"  +++++++++++.     ",
"  +++++++++..      ",
"   .......         "};
