/* XPM */
static char * bola_xpm[] = {
"32 32 59 1",
" 	c #00FF00",
".	c #252626",
"+	c #4A5459",
"@	c #545A5D",
"#	c #525C61",
"$	c #535D62",
"%	c #585E60",
"&	c #595E61",
"*	c #5A6062",
"=	c #5B6163",
"-	c #5C6164",
";	c #5D6365",
">	c #5E676B",
",	c #676C6F",
"'	c #677074",
")	c #6C7479",
"!	c #6D7579",
"~	c #6F777B",
"{	c #70787C",
"]	c #797979",
"^	c #7B8286",
"/	c #7D8588",
"(	c #7D8589",
"_	c #7E8789",
":	c #83898D",
"<	c #8A9194",
"[	c #8B9194",
"}	c #8C9295",
"|	c #8D9396",
"1	c #8E9497",
"2	c #909599",
"3	c #919699",
"4	c #979C9E",
"5	c #989D9F",
"6	c #9CA2A5",
"7	c #9DA2A5",
"8	c #9FA5A7",
"9	c #A2A8AA",
"0	c #A4A9AC",
"a	c #A6ABAE",
"b	c #AAAEB0",
"c	c #ABB0B3",
"d	c #B1B5B6",
"e	c #B5B9BC",
"f	c #B6BABC",
"g	c #BFC3C4",
"h	c #C6C9CB",
"i	c #CCCECE",
"j	c #D4D6D7",
"k	c #D9DCDD",
"l	c #E6E6E6",
"m	c #E9E9E9",
"n	c #ECEDEE",
"o	c #F9F9F9",
"p	c #FCFCFC",
"q	c #FFFEFF",
"r	c #FEFFFF",
"s	c #FFFFFE",
"t	c #FFFFFF",
"             .......            ",
"           ..lljjj0/.           ",
"         ...ltttttljj..         ",
"       ..,].tttttttttt'.        ",
"      .,,]].tttttttttttl.       ",
"    ..,]]]].ttttttttttt)...     ",
"   .,]]]]]..ltttttttttt.jm..    ",
"  .#,,]$#..j.lnttttttt.)ttt.    ",
"  ......'jtt'..........jtttt.   ",
" .'tj'.jtttttg..;-=*&%.jtttt..  ",
" .ttt'.ttttttk..]]]]]]..ttttt.  ",
"..tttj.tttttt0.]]]]]]]]..ttttj. ",
".jtqtj.tttttt0.]]]]]]]]@.ttttj. ",
".ttttj.tttttt/.]]]]]]]]]..tj... ",
"'ttttj.ttttt_..]]]]]]]]]@...(1..",
"jttttj./jj....,]]]]]]]]]@..ltjd.",
"jttttj...'ccc..]]]]]]]],..ttttd.",
"jtttt.'tttttt9.#]]]]]],..tttttd.",
"'tttt.tttttttt'.]]]]]]..ttttttd.",
".tttt.ttttttttt..,,,,#.6tttttt!.",
".'ttj.ttttttttte.......7tttttt. ",
" .##.'ttttttttte.ltttt.6tttttj. ",
" .,]#.ttttttttte.ttstt.+tttttd. ",
"  #]].atttttttt..ttstqb+.ttt<.  ",
"  .]]..etttttnf.ttttttb{.|}[>.  ",
"   .]]..etttee..ttrttt~..##..   ",
"   ..],..........tpot..]]],.    ",
"    .#].^nntttt8..3h..]]],.     ",
"     ...5ttttttt8^..#]]],.      ",
"       .~4ttttttti:.]]],.       ",
"        ..ttnttttt2.,,..        ",
"          ...........           "};
