/* XPM */
static char * personagem_2_parado_xpm[] = {
"56 77 91 1",
" 	c #00FF00",
".	c #000000",
"+	c #030E4B",
"@	c #141529",
"#	c #1E1A11",
"$	c #1B1B1A",
"%	c #171B37",
"&	c #191E46",
"*	c #282644",
"=	c #212A59",
"-	c #252A4F",
";	c #212A66",
">	c #2D2E2C",
",	c #2B2F4F",
"'	c #3A2F26",
")	c #273467",
"!	c #243783",
"~	c #2B3976",
"{	c #613805",
"]	c #5C3B19",
"^	c #2E4287",
"/	c #2D4496",
"(	c #5B4739",
"_	c #4A4B4C",
":	c #3B4C7C",
"<	c #374F9E",
"[	c #255977",
"}	c #465170",
"|	c #395398",
"1	c #784D02",
"2	c #3753AC",
"3	c #506794",
"4	c #267596",
"5	c #406ABB",
"6	c #656666",
"7	c #886241",
"8	c #7D6454",
"9	c #596D8C",
"0	c #636C7E",
"a	c #966A06",
"b	c #4680D6",
"c	c #738394",
"d	c #528AC7",
"e	c #A58302",
"f	c #3398B4",
"g	c #6D89AB",
"h	c #878887",
"i	c #A4846F",
"j	c #A98461",
"k	c #9B867E",
"l	c #429DD0",
"m	c #28A8CD",
"n	c #8194A3",
"o	c #B59144",
"p	c #F2837C",
"q	c #C1A10F",
"r	c #35BEDF",
"s	c #BC9C86",
"t	c #5DB4E2",
"u	c #C69E7C",
"v	c #CA9F66",
"w	c #D3A075",
"x	c #A4AAB3",
"y	c #95B0BB",
"z	c #E89A91",
"A	c #8EB1D7",
"B	c #CDAB94",
"C	c #D1AC8C",
"D	c #D6BA00",
"E	c #F6A492",
"F	c #DDB686",
"G	c #DABC75",
"H	c #5DD9FB",
"I	c #DEBDA5",
"J	c #AACCD1",
"K	c #C6CED6",
"L	c #BCDBE0",
"M	c #F3DE02",
"N	c #FCCDB9",
"O	c #F3D1B8",
"P	c #F3D6B2",
"Q	c #FFD4A3",
"R	c #FFD4B6",
"S	c #FFD6BE",
"T	c #FFED00",
"U	c #CFE9EF",
"V	c #E0E8F0",
"W	c #FAEFE1",
"X	c #E6F7FA",
"Y	c #F1F8FF",
"Z	c #FFFFFF",
"                   .#.                                  ",
"                #'_6_$$.. .>_>>'###>$.                  ",
"             $>>>_66_>$>_>$>666666_>>_># #.             ",
"           $>___>666_>$$66_$>_666666>>___##.            ",
"         .>___6_6666_>$$666>>$>66666#$>6_###.           ",
"     $$ #_6__6_66666_>$$_66_>>$_6666$$>_6'>##.          ",
"     $ ._6__66_66666_>$$_666>>$$666>$$>__'>>##          ",
"    $>._66__6_666666>>$$_666>>$$666$$$>>_#$>##.         ",
"    $_>666_66_66666_>>$$_666>>$$_6_$$$>>>$$>###.        ",
"    >_666_66_666666_>>$$_666>>$$_6>$$$>>$$>>####        ",
"    >_66__66_666666>>$$$_666>$$$>>$$$>>$$$>>####        ",
"    >666#666>666666>>$$$_66_>$$$$$$$>>$$$>>$###.        ",
"    >6__#_6_>66666_>$$$$>6_>$'(8(('#$$$$>>>$$>>.        ",
"    $_>#$>6_>6666_>>$$$>$>>#8uuuuuui'##$$$$$>__$        ",
"     $>$#>__>_666>>$$>_6_#8uuwwFFFFCuj(#$$>__66_.       ",
"    >_>$'si_#_66>>>$###_6(uwFIRPPPPPFwu('''''''>#       ",
"   >6_''IPRs#>_>>>#(iii'_(CPPPPPPPPPRFwuuuuuss8##.      ",
"  $6_(CRPPPPi>>>#'iuuPPB('IPPPPPPPPPRICFwuuu8'>###.     ",
"  $_'jPPPPPPPs>'8uuCPPPPB'IPPPPPPPPPPPPPFuj('>$$###     ",
"  $# PPPPPPPPPiuuCPPPPPPP8sPPPPPPPPPPPPPFuj'$$$####.    ",
"  $ ]RPPPPPPPPRCRPPPPPPPPBsPPPPPOPOOOOBi8uuuiiii'###    ",
"  $ iRRPPPPPPPPPPPPPPPPPPICPPPPOWOIs8''#'7uwuCu8####    ",
"  # ((8IOPPPPPPPPPPPPPPPPOPOWWWk6('''''''uwwu8''$###    ",
"  # 8'''8BWWOIPPPPPRPPPPWWWIh('''''''>$#'jwu('>$$###.   ",
"    8''''''kICRPPPPCRPWWIk''''''''####'(7uww8>>$$###.   ",
"    7(##'''''8CRCPPCCII8''''''>#$$_6k877jwwwi'$$$####   ",
"    jsK.$$$>'#(CFRPFj7'''#>>#$$$..xZWOj7jwwwi'$$$###.   ",
"    jOW...$$##'CwFPRu]'####$....$_xZZZO7juwwi#$$$$##.]  ",
"    sWW.K_..$6sFFFPRFj('>>6.....$_hZZZWijuwui#$$$#(7wj] ",
"    uWW>Z6..$KORRQPPRFCWxhV_....>_hZZZZBjuwu8##'8jwwwwj ",
"    CWW_Z6..>KWPPPPPPPOWKxZ6....__xZZZZWjwwu((juwwwwwww7",
"    CWZhK>.$>VWPPPPPPPPWKxZ6...$6>KZZZZWuuuujwwwwwwwjvw7",
"    CWZx$..>_ZWPPPPPPPPWZ6K....___ZZZZZWuuuuwuwwwu7]77w7",
"    CWZZh$_>xZWPPPPPPPPWZx...$>_>VZZZZZWuuwuuwwww7]7www7",
"    CWZZZxxKZZWIPPPPPPPWZZKh.$_xVZZZZZZWuuwwuwww7]]7www7",
"    uOWWWWWZZWkjPPPPPPPWZZZZWWWWWWWWZZZWuwwwwwwu]7jwwww7",
"    jCIIIIOOIi777PPPPPPPOOOOOOOIIIIIIIICwwwwwwww7vwwwwj7",
"   ]FPPPPPPPPPPPIPPPPPPPPPPPPPPPPPPPPCwwwwwwwwwwjwwwww] ",
"  7PPPPPPPPPPPPPPPPPPPPPPPPPPPPPPPPPPPRCwwwwwwwwwwwww77 ",
" ]IPPPPPPPPPPPPPPPPPPPPPPPPPPPPPPPPPPPPPFwwwwwwwwwww7]  ",
" jPPPPPPPPPPPPPCsiiiiisIPPPPPPPPPPPPPPPPPCwwwwwwwwww7   ",
"]IPPPPPPPPPPPC]]]]]]]]]7PPPPPPPPPPPPPPPPPPFwwwwwwwww7   ",
"7PPPPPPPPPPCjCPPPPPPPC7]IPPPPPPPPPPPPPPPPPRwwwwwwwww7   ",
"jPPPPPPPPPPPPPPPPPPPPPPPPPPPPPPPPPPPPPPPPPRwwwwwwwwwj   ",
"jPPPPPPPPPPPPPPFwwwwFFPPPPPPPPPPPPPPPPPPPPRFwwwwwwwww   ",
"jPPPPPPPPPPPPPPPRIFFFPPPPPPPPPPPPPPPPPPPPPPFwwwwwwwwj   ",
"7PPPPPPPPPPPPPPPPPPPPPPPPPPPPPPPPPPPPPPPPPRwwwwwwwww7   ",
"]IPPPPPPPPPPPPPPPPPPPPPPPPPPPPPPPPPPPPPPPPFwwwwwwwwu7   ",
" 7PPPPPPPPPPPPPPPPPPPPPPPPPPPPPPPPPPPPPPPQwwwwwwwww7    ",
"  jPPPPPPPPPPPPPPPPPPPPPPPPPPPPPPPPPPPPPRFwwwwwwww7     ",
"  ]uRPPPPPPPPPPPPPPPPPPPPPPPPPPPPPPPPPPPwwwwwwwwj7      ",
"   ]7IPPPPPPPPPPPPPPPPPPPPPPPPPPPPPPPRFwwwwwwwuj7       ",
"     ]jIRPPPPPPPPPPPPPPPPPPPPPPPPPRRFwwwwwwwuj7]        ",
"       ]7uIRPPPPPPPPPPPPPPPPPPRRFFwwwwwwwwj77           ",
"          77juCCCRRRRPPPPPPICCwwwwwuuuj777]             ",
"                7777777777777777777  2bb~;;             ",
"                      ;***rr~*~2~;;;;bb~2~;             ",
"                     **~~*~*XJ;~2;bbbbb~22~             ",
"                    ~***~~***YJ;;2;bbb~222~             ",
"                   ~**~~**YYYYXXJ;2~;;2222~             ",
"                  ~~***~Y*~YYYYYXJ;2222222;r            ",
"                ~***~~**YYYJJYYYYYX;;;;~~;@rr           ",
"               ~**~~*YYY*YYYXUJYYYYYXXJJJ2HHr           ",
"             UU*~*~~***YYYYYYXUUYYYYYXUUJ2HHr           ",
"           UUXXXX**YY*YYYYYYYYYXJXYYYYXXU2HHr           ",
"         JUUXXYYYYYYYUXYYYYYYYYYXUXYYYYX2HHHr           ",
"       JJUXXYYYYYYYYYXUYYYYYYYYYYUUYYXUU2HHHr           ",
"     JJXXYYYYYYYYYYYYYXUYYYYYYYYYUJYUUU2HHHrb           ",
"    JUXYYYYYYYYYYYYYYYYXUXYYYYYUUJJJbb2HHHrb2           ",
"   JUXYYYYYYYYYYYYYYYYYYXUXYXUUUJ;~~HHHrrrb2            ",
"   ;;JJUUXXXXYYYYYUUUUUJJ*~~~~;;*2222222222@            ",
"   ;b;~;*UUUJJUUUUUJJ*;~;2222222222222*~~~@             ",
"   @22222*;;~~~~~~;;*22222@;;;@@@~~~~@ @~@              ",
"    @222222222222222222~~@ @;@   @~~@  @@@              ",
"    @@@@~~~@@~~22~~~@~~~@   @    @@@                    ",
"     @  @~@  @;@~~~@ @@@                                ",
"         @@  @@ @@@@                                    "};
