/* XPM */
static char * personagem_2_chutar_tras_3_xpm[] = {
"60 76 91 1",
" 	c #00FF00",
".	c #000000",
"+	c #030E4B",
"@	c #141529",
"#	c #1F190F",
"$	c #1B1B18",
"%	c #171B37",
"&	c #191E46",
"*	c #282644",
"=	c #212A59",
"-	c #252A4F",
";	c #212A66",
">	c #3B2A1E",
",	c #2C2E2B",
"'	c #2B2F4F",
")	c #3C3027",
"!	c #273467",
"~	c #243783",
"{	c #2B3976",
"]	c #613805",
"^	c #5D3A18",
"/	c #2E4287",
"(	c #2D4496",
"_	c #5D473A",
":	c #3B4C7C",
"<	c #484C50",
"[	c #374F9E",
"}	c #255977",
"|	c #465170",
"1	c #395398",
"2	c #784D02",
"3	c #3753AC",
"4	c #3D61B2",
"5	c #506794",
"6	c #267596",
"7	c #646664",
"8	c #7E6453",
"9	c #596D8C",
"0	c #646C7E",
"a	c #4271C3",
"b	c #8B6644",
"c	c #966B0A",
"d	c #4680D6",
"e	c #738394",
"f	c #528AC7",
"g	c #A58302",
"h	c #3398B4",
"i	c #6D89AB",
"j	c #9B8072",
"k	c #868885",
"l	c #A98664",
"m	c #429DD0",
"n	c #A98771",
"o	c #28A8CD",
"p	c #8194A3",
"q	c #B99647",
"r	c #F2877E",
"s	c #C1A10F",
"t	c #35BEDF",
"u	c #BD9C86",
"v	c #5DB4E2",
"w	c #C9A065",
"x	c #D4A075",
"y	c #A3AAB4",
"z	c #95B0BB",
"A	c #E89A91",
"B	c #CAA586",
"C	c #8EB1D7",
"D	c #CDAB93",
"E	c #D6BA00",
"F	c #DABC75",
"G	c #F7B09D",
"H	c #5DD9FB",
"I	c #DFBCA5",
"J	c #AACCD1",
"K	c #EAC191",
"L	c #C5CED7",
"M	c #F1CAB5",
"N	c #BCDBE0",
"O	c #F3DE02",
"P	c #F6D6B5",
"Q	c #FFD4B7",
"R	c #FCD5BD",
"S	c #FFED00",
"T	c #CFE9EF",
"U	c #DFE6EF",
"V	c #D4EDEB",
"W	c #FAEFE3",
"X	c #E6F7FA",
"Y	c #F1F8FF",
"Z	c #FFFFFF",
"                   .#.                                      ",
"                #)<7<$$.. .,<,,)###,$.                      ",
"             $,,,<77<,$,<,$,777777<,,<,# #.                 ",
"           $,<<<,777<,$$77<$,<777777,,<<<##.                ",
"         .,<<<7<7777<,$$777,,$,77777#$,7<###.               ",
"     $$ #<7<<7<77777<,$$<77<,,$<7777$$,<7),##.              ",
"     $ .<7<<77<77777<,$$<777,,$$777,$$,<<),,##              ",
"    $,.<77<<7<777777,,$$<777,,$$777$$$,,<#$,##.             ",
"    $<,777<77<77777<,,$$<777,,$$<7<$$$,,,$$,###.            ",
"    ,<777<77<777777<,,$$<777,,$$<7,$$$,,$$,,####            ",
"    ,<77<<77<777777,,$$$<777,$$$,,$$$,,$$$,,####            ",
"    ,777#777,777777,,$$$<77<,$$$$$$$,,$$$,,$###.            ",
"    ,7<<#<7<,77777<,$$$$,7<,$)_8__)#$$$$,,,$$,,.            ",
"    $<,#$,7<,7777<,,$$$,$,,#8BBBBBBn)##$$$$$,<<$            ",
"     $,$#,<<,<777,,$$,<7<#8BBxxKKKKBBl_#$$,<<77<.           ",
"    ,<,$)un<#<77,,,$###<7_BxKIQPPPPPKxB_))))))),#           ",
"   ,7<))IPQu#,<,,,#_nnn)<_BPPPPPPPPPQKxBBBBBuu8##.          ",
"  $7<_BQPPPPn,,,#)nBBPPD_)IPPPPPPPPPQIBKxBBB8),###.         ",
"  $<)lPPPPPPPu,)8BBBPPPPD)IPPPPPPPPPPPPPKBl_),$$###         ",
"  $# PPPPPPPPPnBBBPPPPPPP8uPPPPPPPPPPPPPKBl)$$$####.        ",
"  $ ^QPPPPPPPPQBQPPPPPPPPDuPPPPPRPRRRRDn8BBBnnnn)###        ",
"  $ nQQPPPPPPPPPPPPPPPPPPIBPPPPRWRIu8))#)bBxBBB8####        ",
"  # __8IRPPPPPPPPPPPPPPPPRPRWWWj7_)))))))BxxB8))$###        ",
"  # 8)))8DWWRIPPPPPQPPPPWWWIk_))))))),$#)lxB_),$$###.       ",
"    8))))))jIBQPPPPBQPWWIj))))))))####)_bBxx8,,$$###.       ",
"    b_##)))))8BQBPPBBII8)))))),#$$<7j8bblxxxn)$$$####       ",
"    luL.$$$,)#_BKQPKlb)))#,,#$$$..yZWRlblxxxn)$$$###.       ",
"    lRW...$$##)BxKPQB^)####$....$<yZZZRblBxxn#$$$$##.^      ",
"    uWW.L<..$7uKKKPQKl_),,7.....$<kZZZWnlBxBn#$$$#_bxl^     ",
"    BWW,Z7..$LRQQKPPQKBWykU<....,<kZZZZDlBxB8##)8lxxxxl     ",
"    BWW<Z7..,LWPPPPPPPRWLyZ7....<<yZZZZWlxxB__lBxxxxxxxb    ",
"    BWZkL,.$,UWPPPPPPPPWLyZ7...$7,LZZZZWBBBBlxxxxxxxlwxb    ",
"    BWZy$..,<ZWPPPPPPPPWZ7L....<<<ZZZZZWBBBBxBxxxBb^bbxb    ",
"    BWZZk$<,yZWPPPPPPPPWZy...$,<,UZZZZZWBBxBBxxxxb^bxxxb    ",
"    BWZZZyyLZZWIPPPPPPPWZZLk.$<yUZZZZZZWBBxxBxxxb^^bxxxb    ",
"    BRWWWWWZZWjlPPPPPPPWZZZZWWWWWWWWZZZWBxxxxxxB^blxxxxb    ",
"    lBIIIIRRInbbbPPPPPPPRRRRRRRIIIIIIIIBxxxxxxxxbwxxxxlb    ",
"   ^KPPPPPPPPPPPIPPPPPPPPPPPPPPPPPPPPBxxxxxxxxxxlxxxxx^     ",
"  bPPPPPPPPPPPPPPPPPPPPPPPPPPPPPPPPPPPQBxxxxxxxxxxxxxbb     ",
" ^IPPPPPPPPPPPPPPPPPPPPPPPPPPPPPPPPPPPPPKxxxxxxxxxxxb^      ",
" lPPPPPPPPPPPPPBunnnnnuIPPPPPPPPPPPPPPPPPBxxxxxxxxxxb       ",
"^IPPPPPPPPPPPB^^^^^^^^^bPPPPPPPPPPPPPPPPPPKxxxxxxxxxb       ",
"bPPPPPPPPPPBlBPPPPPPPBb^IPPPPPPPPPPPPPPPPPQxxxxxxxxxb       ",
"lPPPPPPPPPPPPPPPPPPPPPPPPPPPPPPPPPPPPPPPPPQxxxxxxxxxl       ",
"lPPPPPPPPPPPPPPKxxxxKKPPPPPPPPPPPPPPPPPPPPQKxxxxxxxxx       ",
"lPPPPPPPPPPPPPPPQIKKKPPPPPPPPPPPPPPPPPPPPPPKxxxxxxxxl       ",
"bPPPPPPPPPPPPPPPPPPPPPPPPPPPPPPPPPPPPPPPPPQxxxxxxxxxb       ",
"^IPPPPPPPPPPPPPPPPPPPPPPPPPPPPPPPPPPPPPPPPKxxxxxxxxBb{;     ",
" bPPPPPPPPPPPPPPPPPPPPPPPPPPPPPPPPPPPPPPPKxxxxxxxxxb4{;     ",
"  lPPPPPPPPPPPPPPPPPPPPPPPPPPPPPPPPPPPPPQKxxxxxxxxba/3/{    ",
"  ^BQPPPPPPPPPPPPPPPPPPPPPPPPPPPPPPPPPPPxxxxxxxxlbda/33{    ",
"   ^bIPPPPPPPPPPPPPPPPPPPPPPPPPPPPPPPQKxxxxxxxBlbdd1333/    ",
"     ^lIQPPPPPPPPPPPPPPPPPPPPPPPPPQQKxxxxxxxBlb^aa1[333/h   ",
"       ^bBIQPPPPPPPPPPPPPPPPPPQQKKxxxxxxxxlbbp9([/(333(;htt ",
"          bblBBBBQQQQPPPPPPIBBxxxxxBBBlbbb^XXVJe:(~~:595tHt ",
"                bbbbbbbbbbbbbbbbbbb-!='yUZYYYXXUNpzJJJJfHHt ",
"                                 !*-!iL0yTTYXYYYYYXXTTNfHHt ",
"                                {{*&+0UYYTVTNUYYYYYYXXNCHHt ",
"                                ==!eyLyUYYXXTTTVXYYYYXLmHHHo",
"                              {-=!=yLUUYYYYYYYVTTXYXTTCvHHoa",
"                             :=&!{|00UYYYYYYYYYXTTYTTNfHHtd3",
"                            Tz0e+eUUyXYYYYYYYYYYTNTCfftHtm4 ",
"                           TXXXXyLYYTTYYYYYYYYXTNJzvvHtmma/ ",
"                          TTXYYYYYYYXXTXYYYYYXTNz:~ffa[(({& ",
"                        JNTXXYYYYYYYYXXTTXXXTJzp53333[=!{-  ",
"                       JNTXYYYYYYYYYYYYXTJyp5/~([33[/= @-@  ",
"                      NVTYYYYYYYYYYYXXTNz:(333({!{{{=  @@   ",
"                     JVXXYYYYYYYYYTTNzp9:3({;=%  %=!&       ",
"                    JTXYYYYXXYYXXTTJJ9(33(!%=&    @@        ",
"                   JNXXXTXXXTNNNzze|!(3[{=   @              ",
"                   pezJzpzNJze9:/((33([/!@                  ",
"                    14{~~5|{~(3333//!%-&%                   ",
"                    {3333333/{/{[[{{%                       ",
"                     =[[{/{{% *=&-&%@                       ",
"                     @%@ &!&  @@                            ",
"                      @   %@                                "};
