/* XPM */
static char * bola_xpm[] = {
"64 64 74 1",
" 	c #00FF00",
".	c #242624",
"+	c #47545A",
"@	c #55595C",
"#	c #565A5C",
"$	c #505D63",
"%	c #515E63",
"&	c #525F64",
"*	c #5A5E60",
"=	c #536166",
"-	c #5C6062",
";	c #5D6163",
">	c #5F6365",
",	c #5C6768",
"'	c #5C696F",
")	c #656A6C",
"!	c #666A6D",
"~	c #5F6C72",
"{	c #676B6E",
"]	c #696D70",
"^	c #667172",
"/	c #6D737B",
"(	c #707477",
"_	c #727679",
":	c #73777A",
"<	c #787A77",
"[	c #787C7F",
"}	c #7D8184",
"|	c #808487",
"1	c #818588",
"2	c #828689",
"3	c #7C8888",
"4	c #85898C",
"5	c #8C9093",
"6	c #8D9194",
"7	c #8E9295",
"8	c #8F9396",
"9	c #909497",
"0	c #919598",
"a	c #929699",
"b	c #969B9D",
"c	c #979C9E",
"d	c #989D9F",
"e	c #9CA1A3",
"f	c #9DA2A4",
"g	c #9EA3A5",
"h	c #A0A4A6",
"i	c #A1A5A8",
"j	c #A2A6A9",
"k	c #A3A7AA",
"l	c #A5A9AC",
"m	c #A7ABAE",
"n	c #A9ADB0",
"o	c #AAAFB1",
"p	c #ABB0B2",
"q	c #B0B5B7",
"r	c #B1B6B8",
"s	c #B5B9BC",
"t	c #B6BABD",
"u	c #BEC3C5",
"v	c #C5C9CC",
"w	c #CCCFCB",
"x	c #D2D6D9",
"y	c #D7DCDF",
"z	c #E5E7E4",
"A	c #E7E9E6",
"B	c #E9EEF0",
"C	c #EDF0ED",
"D	c #F2F4F1",
"E	c #F4F7F3",
"F	c #F8FAF7",
"G	c #FAFCF9",
"H	c #FFFDFF",
"I	c #FDFFFC",
"                        ..............                          ",
"                      .....zzzzzxxx^^.....                      ",
"                   ......^zzIIIIIIzxx^^......                   ",
"                  ....+..zIIIIIIIIIIzzxxxx.....                 ",
"                ....{{{..zIIIIIIIIIIIIIIIzzz....                ",
"              ....{{{<{..IIIIIIIIIIIIIIIIIIII^...               ",
"             ....{<<<<{..IIIIIIIIIIIIIIIIIIIIIz...              ",
"            ...{{{<<<<<..IIIIIIIIIIIIIIIIIIIIIIz...             ",
"          ....{<<<<<<<<..IIIIIIIIIIIIIIIIIIIIIIx.....           ",
"         ...{{<<<<<<<<<..IIIIIIIIIIIIIIIIIIIIII/......          ",
"        ..{{<<<<<<<<<<<..IIIIIIIIIIIIIIIIIIIIII../AA...         ",
"       ..{<<<<<<<<<<.....zIIIIIIIIIIIIIIIIIIII../xAAx...        ",
"      ..%{<<<<<{{!).......zEEEIIIIIIIIIIIIIII/./xxDDxx...       ",
"     ..%%{{{<<<%%%....^x..zzzBEIIIIIIIIIIIIIz../IIIIIIx..       ",
"    ..%%%%%{{{{.....^xxx^....zzzzIIIIIIIIIzxx../IIIIIIIx..      ",
"    .............^^xIIIII^.....................xIIIIIIII...     ",
"   ...^x.......^xxIIIIIIIx^....................xIIIIIIIIx..     ",
"   ..^IIIxx^..xxIIIIIIIIIIxu2...#>>;;;--****%..xIIIIIIIII...    ",
"  ...xIIIIx^..xIIIIIIIIIIIIys...><<<<<<<<<<<@...IIIIIIIIII..    ",
"  ..^IIIIIx^..IIIIIIIIIIIIIys...><<<<<<<<<<<<.../IIIIIIIIIx..   ",
"  ..^IIIIIxx..IIIIIIIIIIIIIl|..<<<<<<<<<<<<<<@...xIIIIIIIII...  ",
" ...xIIIIIxx..IIIIIIIIIIIIIl|..<<<<<<<<<<<<<<<@...xIIIIIIIIx..  ",
" ..xIIIIIIxx..xIIIIIIIIIIIIl..{<<<<<<<<<<<<<<<<...xIIIIIIIII... ",
" ..xIIIHIIIx..xIIIIIIIIIIIIl..{<<<<<<<<<<<<<<<<@../IIIIIIIIx... ",
" .^IIIIIIIIx..xIIIIIIIIIIIIl..{<<<<<<<<<<<<<<<<@../xIIIIIxxx... ",
"..xIIIIIIIIx..xIIIIIIIIIIII|..{<<<<<<<<<<<<<<<<<@...xIIxx...... ",
"..xIIIIIIIIx..|IIIIIIIIIIII|..{<<<<<<<<<<<<<<<<<@...xxx.........",
".^IIIIIIIIIx..|IIIIIIIIII31...<<<<<<<<<<<<<<<<<<<@..~...(|88(...",
".^IIIIIIIIIx...|IIIIxxx......%<<<<<<<<<<<<<<<<<<<@.....aIIxxa(..",
".xIIIIIIIIIx...||xxx.........{<<<<<<<<<<<<<<<<<<<@....xzIIIxxq..",
".xIIIIIIIIIx..........^^^.....<<<<<<<<<<<<<<<<<{....aIIIIIIIxq..",
".xIIIIIIIIIx.......^^pppppp...<<<<<<<<<<<<<<<<<{....IIIIIIIIIq..",
".xIIIIIIIIx^.^bmmnppBBBBBBBe..%{<<<<<<<<<<<<<<{....IIIIIIIIIIq..",
".xIIIIIIII^..^bIIIIIIIIIIIBk...%{<<<<<<<<<<<<{....IIIIIIIIIIIq..",
".xIIIIIIII^..bIIIIIIIIIIIIIB^...{<<<<<<<<<<<<{...8IIIIIIIIIIIq..",
".^IIIIIIII^..IIIIIIIIIIIIIIIB^...<<<<<<<<<<<{...8IIIIIIIIIIIIq..",
"..xIIIIIII^.bIIIIIIIIIIIIIIIIB...%{<<<<<<{{{{..eIIIIIIIIIIIIIq..",
"..xIIIIIII^.bIIIIIIIIIIIIIIIIIk...%{{{{{{{{%...fIIIIIIIIIIIII(..",
" .^xIIIIxx^.xIIIIIIIIIIIIIIIIIx................fIIIIIIIIIIIIx(. ",
" ..^xIIIxx..xIIIIIIIIIIIIIIIIIxsh..............fIIIIIIIIIIIIx.. ",
"  ..........xIIIIIIIIIIIIIIIIIIsh..zzIIIIIIIz..fIIIIIIIIIIIIx.. ",
"  ...%{%...^xIIIIIIIIIIIIIIIIIIsh..zIIIIIIIII..fIIIIIIIIIIIxx.. ",
"   .%{<<{..^xIIIIIIIIIIIIIIIIIys8..zIIIIIIIII..[lIIIIIIIIIIx,.. ",
"   ..{<<<%..mIIIIIIIIIIIIIIIIIts...IIIIIIIIII..++IIIIIIIIIqq..  ",
"   ..{<<<{..mIIIIIIIIIIIIIIIIItt..zIIIIIIIIIIo..++IIIIIIIIq,..  ",
"    .%<<<<..=mIIIIIIIIIIIIIIIIt...IIIIIIIIIHIo[+..xIIIIII5,..   ",
"    ..{<<<{..'mIIIIIIIIIIIIIItt..zIIIIIIIIIIII[[..xxIIIII5,..   ",
"     ..<<<<...&sIIIIIIIIIIIByt...IIIIIIIIIIIIoo:...776655,..    ",
"     ..%<<<<....sIIIIIIIIIIyt^..hIIIIIIIIIIII__.............    ",
"      ..<<<<{....sIIIIIIIsss^...hIIIIIIIIIIIv_....{%%%.....     ",
"      ...{<<<%..................hIIIIIIIIIvv....{<<<{%%%..      ",
"       ...<<<{....................IIIGFFII9...<<<<<<<{{..       ",
"        ..%<<<%...}}kkkkkBBhhhh}..hhvvCCv9].%<<<<<<<{{..        ",
"         ..%<<{..}}BBBIIIIIIIIIh}....0vv....<<<<<<<{{..         ",
"          ..{{{..}BBIIIIIIIIIIIIh}.../}}..%<<<<<<<{%..          ",
"           ......dBIIIIIIIIIIIIIIhh}.....%<<<<<<<{%..           ",
"            .....dIIIIIIIIIIIIIIIIIr}}..%<<<<<<<{%..            ",
"              ..._ccIIIIIIIIIIIIIIIww4..<<<<<<<{%..             ",
"               .....IIIIIIIIIIIIIIIII9..<<<<<{%...              ",
"                 ....IIIBBIIIIIIIIIII0..{{{{%....               ",
"                   .......BBBIIIIIBB...........                 ",
"                      .....................                     ",
"                         .............                          ",
"                                                                "};
