/* XPM */
static char * personagem_chutar_frente_6_xpm[] = {
"82 58 91 1",
" 	c None",
".	c #000000",
"+	c #020C49",
"@	c #141529",
"#	c #171B37",
"$	c #191E46",
"%	c #282644",
"&	c #212A59",
"*	c #252A4F",
"=	c #212A66",
"-	c #3B2D23",
";	c #2B2F4F",
">	c #273467",
",	c #233682",
"'	c #2B3976",
")	c #613805",
"!	c #2D4185",
"~	c #2D4495",
"{	c #3B4C7C",
"]	c #5E4739",
"^	c #374E9D",
"/	c #255976",
"(	c #4C4F63",
"_	c #385197",
":	c #465170",
"<	c #3752AB",
"[	c #784D02",
"}	c #3C5FB0",
"|	c #506694",
"1	c #267495",
"2	c #7E6453",
"3	c #626A7C",
"4	c #596D8C",
"5	c #4270C3",
"6	c #966A05",
"7	c #8E6D4F",
"8	c #467CD6",
"9	c #9D732B",
"0	c #728293",
"a	c #5189C6",
"b	c #448CD3",
"c	c #3397B3",
"d	c #A58302",
"e	c #6C88AA",
"f	c #9B7F71",
"g	c #429DD0",
"h	c #28A8CD",
"i	c #AA8871",
"j	c #AD8967",
"k	c #8094A3",
"l	c #B7972F",
"m	c #BE9953",
"n	c #F2877E",
"o	c #C1A10F",
"p	c #8AA5B2",
"q	c #32BEDF",
"r	c #BD9C86",
"s	c #5DB4E2",
"t	c #A1A9B4",
"u	c #54BDE7",
"v	c #CAA374",
"w	c #8CB0D6",
"x	c #E89A91",
"y	c #CAA687",
"z	c #9AB6C0",
"A	c #CDAB93",
"B	c #D6BA00",
"C	c #DABC75",
"D	c #F7B09D",
"E	c #5DD9FB",
"F	c #E0BCA4",
"G	c #A9CBD0",
"H	c #C4CDD6",
"I	c #F1C8B0",
"J	c #E6CAC4",
"K	c #F5CD9B",
"L	c #BADADF",
"M	c #F3DE02",
"N	c #FAD5BC",
"O	c #FFD4B7",
"P	c #FFD4BD",
"Q	c #FDD6B7",
"R	c #CDE8EF",
"S	c #FFED00",
"T	c #DFE6EE",
"U	c #DBEAF1",
"V	c #D4EDEB",
"W	c #E4F5FB",
"X	c #FBF0E5",
"Y	c #E9F8F8",
"Z	c #F1F8FF",
"                  )))[[[[)                                                        ",
"                  )96doBBBooddddddooodd                                           ",
"                  )[666oBBMMMMBBBBBBMMBod                                         ",
"            6oBMMBodd666oBBMSSSMBBBBBBSSMBod                                      ",
"            )6dBMMSMMBd66oBBMSSSSMMBBBBMSSMBld                                    ",
"             )66oMSSSSMBddoBMSSSSSSSMBBBSSSMMmd                                   ",
"              [66doMSSSSMddBBSSSSSSSSSMBBSSSSMBl                                  ",
"              )[666dBMSSSMBdBMSSSSSSSSSMBMSSSSMBd                                 ",
"            )))))[666oMSSSSMBBMSSSSSSSSSSMSSSSSMBd                                ",
"           )))))))[666dBMSSSMBBSSSSSSSSSSSMSSSSSMo                                ",
"          ))))))))))[666BMSSSMBMSSSSSSSSSSSSSSSSSMm                               ",
"         ))))[666[[))[666oMSSSMBMSSSSSSSSSSSSSSSSMB                               ",
"         ))))[666666[[[666dBMSSMBMSSSSSSSSSSSSSSSSM                               ",
"        )))))[ooodd6666[[666oBMSMBMSSSSSSSSSSSSSSSB                               ",
"       ))))[d6oBBBold66666666dBMMMBBSSSSSSSSSSSSSMB                               ",
"      )))))[oooommmCCvmm9666666dBMMBBMSSSSSMSSSSSMm                               ",
"      )))))[oomyyyyyAAAFFyvmm6666dBBBBBMSSSMMSSMMCj                               ",
"     ))))[66mvyyAyyFNQQQQQQQQQCvm66doBBBBMSMMMMBCFFf                              ",
"    )))))[6mvyAyyFOOOOOOOOOOOOQQQQCm6ddoBBBBoolvNNNr                              ",
"    )))))66vyAAyFQOOOOOOOOOOOOOOOOQQQCCClddddmQPPPPIf                       L0+   ",
"    ))))[6myAAAAOQOQQQQQPOQQOOOOOQOQPQOQQQQQQQOPPPPNr                     LLR4}'  ",
"   )))))[6vyAAAFPOOOFFNNNNQQOOOOOOOPPOOQQQQQQPPPPPNOr                    LLWVp}<$@",
"   )))))[6vyyyAIOOQQA--2iAINNNNNQQPPPPPOQQQQPPPNNNAfi                   GVYZRk~<!@",
"   )))))[6vyyyAIQQQQA]@@@@.-]fAFINNNNNNPOQQNIFAr2-@-rf                 GLYZZR4<<>@",
"   )))))[6vyyAAIQQQQ]-@@@@@@@@--2NPNFFINOQQN2--@@@@-Af                LRWZZWL><<$ ",
"   )))))[6myyyAFQQQQNAi-...@@@-@fNPNFyyIOQNF]@@@@@@]Ff               RRYYZZYUk~^& ",
"   )))))[69yAAAFQQQQNXXXXXF..@JXJNPNFyAOOONiiXF..-JXNi              RUYYZZZYR0~!>$",
"  ]2ff77[66yyAAAQQQONNXXXXF..-XXXPQNNryOOQI]iXF@@@XXNr             RWYYZZZYYL{<'*#",
"  fFFFif796myAAAINPPPNNXXXJ..2XXNPOQQrrONNF-]]----rNNF            >kVZZZZZYVp,~# @",
" 2NNNNPFj966vyAAFNPPOQNNXXXFFNNNQOPOQF2FNNr-]2AIAi-rPNf          >&0YZZZZZZL4~'   ",
"]ANNNNONIj966vyyyFPPPOOIIIIIIOOQOPQONNi]22]]FNNNNNr]DIi        '*%*0UZZZZZWL{<'#@ ",
"2ONAiirIOF9666mryAFPIDnnnnnnnxDIPQQQQNNr2]2FNQQNNNF]nny       ''*'>$TZZZZZWz~<'&@ ",
"2OF222]fQQv669vyyFNOxnnnnnnnnnnxNPONQOQNNNNNNNQPQNF]nnxi    *&%>&'4HZZZZZZRe~<'#  ",
"2IFyFr]]rQy9mvyFOOOOxnnnnnnnnnnxNNNOPPQQOPPNIArAFAf]yxNAq{&*%*%=0(tZZZZZWUL{<^!#  ",
"2AFyyf]22ryvyyFQPOOPDxxxxxxnnnnxPOPNFNQQOPNFiifff2-ANPNOi1*>;'%:T0kUZZZZULz,<'>@  ",
"]ryyy27777ryyAQQOOOPPOOPPPPPIDIOPOOONAINQNFiffff2]fNOOONF1&'&:>kT0HRYZZZRL0~^'&@  ",
"]jyyvrj7jjrArFQQOQOOOOOOOQQQQOOOOOOOQFrOQFiiiff2]2IONQOOFf;'=HTtTTYWUYZWLp:<>#@   ",
" fryyyvvrrArrOQQOOOOOOOOOOOOQQQOOOOOOQrAFrrrrrrf2FOOOPNNNi>(k3THTZZZUWZWz,<^*     ",
" -iyyAyyyyriFPOQOOOOOOOOOOOOOOOOOOOOOQF2Ariffirf2NQNOONQNr%tTtZZZZZZWUYL0~<^*     ",
"  2rAAyyAAriNPOQOOOOOOOOOOOOOOOOOOOOOOF22]----]2fNOOOONQPIkHZRUZZZZZWUUG{<!'#     ",
"  2rAAAyAAirNPOQOOOOOOOOOOOOOOOOOOOOOQF]]------2fNOOOOPONIiZZLYZZZZZZWz|~^>*@     ",
"   iyAAyAriANPOQOOOOOOOOOOOOOOOOOOOQONA2rFFFFFAr2IOOOOOOQOiWZWWZZZZZZYk~~'@       ",
"   ryAAAAriANPOQOOOOOOOOOOOOOOPPPPNONIfFAyyyyyrArAPPPPQOONrYZRRWZZZZZU{<&         ",
"   ryAAAAriFNPOQOOOOOOOOOOOOOOPPPPOOIfrNNFyrrrrFNFPPPPQOPNrWZWRWZZZZWz~~&#        ",
"   ryAAAAriANPOQOOOOOOOOOOOOOOPPPPNNAiNPNNNFFFFNNPOPPPQOONiRZZUWZZZZRe~!&$        ",
"   ryAAAArirNPOQOOOOOOOOOOOOOOPPPPNIyNNPNNNNNNNNNPPPPPQOPIfLZZWVYZWRL{<&#         ",
"   iyAAAArjiOPOQOOOOOOOOOOOOOOPPPPNAIQOONNNNNNNNNOOOPPPONA!GWZYUUWULz,~@          ",
"   2rAAAAAriFNNNOOOOOOOOOOOOOOOOOOOFNNPPNNNNNNNNNOOAPOPPOi<0ZZZYRLLk4~'           ",
"   2rrAAArriiNNQOOOOOOOOOOOOOOOOOOOINNNNNNNNNNNNNOOrIPNNFf,pWZZZWLG{<<'#          ",
"    frrAAAAriANQOOOOOOOOOOOOOOOOOOQFNNNNNNNNNNNNNNFiANNNA<'LYZZZWRp,<<'$@         ",
"    2irrAAArrrFQOOOOOOOOOOOOOOOOOPFyyINNNNNNNNNNNIAfiFNFf<4GUYZWRaua<~'&@         ",
"      2rrAAAAyrFOOOOOOOOOOOOOOOOOQrAAAAFONNNNNIFAAA2fiif<~kLUYWRLbE5<!&$          ",
"       2frrAAAyAAIPPNNNNNPOOOPPNIyjAAAAAAAAAAAyyyAi2ff22<!pGRTRzwgu<!$            ",
"         2irrAAAAAAFIQOQPPPPPOIAAriiAAAAAAAAAyyAAr2]]]'''{aawaasEqa!%             ",
"           22irrrrAAAAAAFFFFAAAAriiirAAAAAAAAyAAr2]-    chEuuEEEEq}!*@            ",
"               2fffiiirrAAAAAAArifiiirAAAAAAAAAi2]-     qqEEEEEEqg<'>@            ",
"                      222fffff2222222firrrrrrr2]--       qqqEEqsb5!*@@            ",
"                                      222222]]]             qqb5<>$               "};
